<svg xmlns="http://www.w3.org/2000/svg" xmlns:xlink="http://www.w3.org/1999/xlink" width="1728" zoomAndPan="magnify" viewBox="0 0 1296 1727.999927" height="2304" preserveAspectRatio="xMidYMid meet" version="1.0"><defs><clipPath id="id1"><path d="M 51 547 L 843 547 L 843 1271 L 51 1271 Z M 51 547 " clip-rule="nonzero"/></clipPath><clipPath id="id2"><path d="M -31.398438 585.84375 L 732.105469 415.613281 L 897.113281 1155.6875 L 133.609375 1325.921875 Z M -31.398438 585.84375 " clip-rule="nonzero"/></clipPath><clipPath id="id3"><path d="M -31.398438 585.84375 L 732.105469 415.613281 L 897.113281 1155.6875 L 133.609375 1325.921875 Z M -31.398438 585.84375 " clip-rule="nonzero"/></clipPath><clipPath id="id4"><path d="M 42 512 L 759 512 L 759 1266 L 42 1266 Z M 42 512 " clip-rule="nonzero"/></clipPath><clipPath id="id5"><path d="M -14.605469 538.816406 L 663.617188 416.027344 L 802.976562 1185.761719 L 124.75 1308.554688 Z M -14.605469 538.816406 " clip-rule="nonzero"/></clipPath><clipPath id="id6"><path d="M -14.605469 538.816406 L 663.617188 416.027344 L 802.976562 1185.761719 L 124.75 1308.554688 Z M -14.605469 538.816406 " clip-rule="nonzero"/></clipPath><clipPath id="id7"><path d="M 549 343 L 1257 343 L 1257 1173 L 549 1173 Z M 549 343 " clip-rule="nonzero"/></clipPath><clipPath id="id8"><path d="M 1125.707031 216.8125 L 1477.789062 915.351562 L 800.683594 1256.628906 L 448.601562 558.09375 Z M 1125.707031 216.8125 " clip-rule="nonzero"/></clipPath><clipPath id="id9"><path d="M 1125.707031 216.8125 L 1477.789062 915.351562 L 800.683594 1256.628906 L 448.601562 558.09375 Z M 1125.707031 216.8125 " clip-rule="nonzero"/></clipPath><clipPath id="id10"><path d="M 1125.707031 216.8125 L 1477.789062 915.351562 L 800.683594 1256.628906 L 448.601562 558.09375 Z M 1125.707031 216.8125 " clip-rule="nonzero"/></clipPath><clipPath id="id11"><path d="M 552 381 L 1265 381 L 1265 1134 L 552 1134 Z M 552 381 " clip-rule="nonzero"/></clipPath><clipPath id="id12"><path d="M 1157.191406 252.992188 L 1467.417969 868.480469 L 768.878906 1220.5625 L 458.65625 605.074219 Z M 1157.191406 252.992188 " clip-rule="nonzero"/></clipPath><clipPath id="id13"><path d="M 1157.191406 252.992188 L 1467.417969 868.480469 L 768.878906 1220.5625 L 458.65625 605.074219 Z M 1157.191406 252.992188 " clip-rule="nonzero"/></clipPath><clipPath id="id14"><path d="M 395 767 L 1154 767 L 1154 1521 L 395 1521 Z M 395 767 " clip-rule="nonzero"/></clipPath><clipPath id="id15"><path d="M 1126.785156 730.667969 L 1162.441406 1512.105469 L 404.976562 1546.664062 L 369.324219 765.226562 Z M 1126.785156 730.667969 " clip-rule="nonzero"/></clipPath><clipPath id="id16"><path d="M 1162.425781 1511.824219 L 1126.773438 730.386719 L 369.3125 764.949219 L 404.964844 1546.382812 Z M 1162.425781 1511.824219 " clip-rule="nonzero"/></clipPath><clipPath id="id17"><path d="M 353 780 L 1174 780 L 1174 1522 L 353 1522 Z M 353 780 " clip-rule="nonzero"/></clipPath><clipPath id="id18"><path d="M 1212.90625 814.378906 L 1163.96875 1546.246094 L 333.320312 1490.699219 L 382.261719 758.835938 Z M 1212.90625 814.378906 " clip-rule="nonzero"/></clipPath><clipPath id="id19"><path d="M 1163.949219 1546.511719 L 1212.886719 814.648438 L 382.242188 759.101562 L 333.304688 1490.96875 Z M 1163.949219 1546.511719 " clip-rule="nonzero"/></clipPath></defs><g clip-path="url(#id1)"><g clip-path="url(#id2)"><g clip-path="url(#id3)"><path fill="rgb(25.099182%, 30.198669%, 19.60907%)" d="M 766 798.4375 C 775.171875 808.230469 783.710938 818.628906 791.402344 830.101562 C 840.96875 904.007812 868.007812 1040.113281 807.226562 1115.804688 C 798.015625 1127.28125 786.476562 1136.3125 773.550781 1143.261719 C 668.839844 1199.519531 640.21875 1035.179688 557.804688 1049.101562 C 534.652344 1053.011719 515.417969 1070.0625 500.382812 1091.175781 C 478.539062 1146.980469 469.917969 1216.042969 417.667969 1253.003906 C 397.882812 1267 372.140625 1271.207031 348.417969 1270.792969 C 269.496094 1269.429688 246.449219 1226.890625 209.8125 1167.753906 C 194.527344 1143.082031 178.867188 1118.226562 162.015625 1094.398438 C 106.828125 1037.898438 61.894531 1004.089844 53.6875 917.785156 C 51.082031 890.398438 53.402344 862.859375 53.414062 835.429688 C 53.414062 828.554688 52.660156 809.277344 54.953125 809.117188 C 61.59375 808.644531 91.125 846.308594 94.910156 851.019531 C 126.757812 890.660156 157.21875 936.621094 202.773438 961.609375 C 215.347656 968.515625 240.695312 984.125 255.160156 973.625 C 257.957031 971.59375 260.0625 969.191406 261.578125 966.515625 C 261.183594 958.722656 259.742188 951.140625 257.449219 943.824219 C 256.535156 942.199219 255.597656 940.597656 254.691406 939.007812 C 247.757812 926.824219 239.792969 915.828125 230.746094 905.832031 C 206.566406 887.125 183.28125 867.210938 157.683594 850.195312 C 133.171875 833.898438 109.03125 816.988281 83.949219 801.5625 C 75.851562 796.578125 57.15625 790.566406 52.496094 781.390625 C 47.769531 772.09375 59.515625 754.882812 63.578125 746.992188 C 78.453125 718.121094 93.421875 690.195312 109.945312 662.167969 C 124.398438 637.640625 132.609375 614.777344 137.09375 586.589844 C 137.910156 581.472656 138.953125 550.40625 141.152344 547.941406 C 141.796875 547.222656 159.261719 553.210938 161.40625 553.832031 C 182.863281 560.011719 205.121094 564.125 227.171875 567.5625 C 243.402344 570.097656 259.878906 570.921875 276.371094 571.242188 C 291.761719 570.910156 307.1875 571.308594 322.597656 571.574219 C 328.644531 571.496094 334.847656 571.394531 340.957031 571.753906 C 372.640625 571.46875 404.855469 565.820312 436.320312 570.46875 C 448.746094 572.300781 463.75 573.683594 469.972656 586.128906 C 500.59375 647.347656 466.839844 714.0625 452.574219 774.632812 C 448.953125 790.011719 439.367188 836.085938 466.714844 836.582031 C 489.230469 836.992188 499.886719 809.699219 505.277344 792.273438 C 519.453125 746.417969 523.367188 695.714844 514.394531 648.539062 C 511.617188 633.933594 507.492188 619.273438 501.964844 605.449219 C 501.382812 603.996094 495.347656 593.046875 498.414062 592.019531 C 502.207031 590.757812 509.640625 594.476562 513.199219 595.5 C 527.644531 599.648438 541.976562 603.878906 556.140625 608.941406 C 571.050781 614.269531 585.890625 619.753906 599.378906 628.167969 C 609.25 634.320312 619.539062 641.070312 627.085938 650.050781 C 652.90625 680.753906 646.992188 718.859375 636.765625 754.789062 C 635.039062 778.65625 632.878906 802.445312 624.308594 824.296875 C 610.242188 860.144531 574.769531 896.027344 580.148438 936.921875 C 583.746094 964.289062 609.179688 941.917969 619.726562 930.789062 C 645.5625 903.519531 669.566406 866.335938 680.246094 830.066406 C 690.472656 795.34375 677.027344 760.996094 664.554688 728.574219 C 663.125 724.847656 648.261719 689.640625 650.632812 685.570312 C 652.15625 682.949219 665.765625 690.574219 667.117188 691.328125 C 683.0625 700.214844 695.691406 714.582031 707.652344 728.039062 C 724.25 746.714844 746.921875 771.347656 766 798.4375 Z M 271.921875 873.433594 C 252.949219 857.519531 229.4375 846.570312 208.960938 832.703125 C 196.386719 824.179688 183.679688 815.59375 172.101562 805.734375 C 162.238281 797.316406 153.234375 787.011719 151.980469 773.585938 C 149.933594 751.613281 170.613281 731.851562 192.777344 738.128906 C 206.964844 742.148438 218.308594 755.511719 226.425781 767.117188 C 242.695312 790.378906 254.832031 816.117188 271.460938 839.25 C 277.238281 847.285156 299.722656 872.480469 282.632812 878.738281 Z M 386.976562 1081.761719 C 371.871094 1084.402344 355.199219 1081.820312 340.222656 1079.761719 C 303.515625 1074.710938 266.761719 1062.808594 233.78125 1045.976562 C 216.183594 1036.996094 201.753906 1023.910156 184.730469 1014.195312 C 178.746094 1010.78125 167.449219 1005.246094 164.363281 1015.03125 C 160.113281 1028.492188 168.804688 1045.5625 175.070312 1057 C 182.492188 1070.546875 192.351562 1085.667969 205.945312 1093.796875 C 220.179688 1102.304688 239.441406 1102.625 255.476562 1103.265625 C 277.515625 1104.144531 299.800781 1106.320312 321.828125 1104.363281 C 341.84375 1102.585938 363.113281 1100.5 382.179688 1093.875 C 384 1093.242188 399.867188 1087.957031 397.898438 1085.164062 L 386.976562 1081.761719 " fill-opacity="1" fill-rule="evenodd"/></g></g></g><g clip-path="url(#id4)"><g clip-path="url(#id5)"><g clip-path="url(#id6)"><path fill="rgb(97.648621%, 74.899292%, 78.42865%)" d="M 128.898438 680.5625 C 124.085938 651.003906 123.886719 616.808594 126.769531 573.730469 C 127.296875 565.855469 125.710938 550.710938 125.878906 537.566406 C 126 528.003906 127.179688 519.449219 130.234375 514.800781 C 131.449219 512.957031 134.046875 511.964844 137.722656 513.101562 C 145.195312 515.414062 160.246094 527.261719 162.890625 528.738281 C 184.945312 541.101562 209.433594 545.453125 233.390625 548.125 C 267.625 551.941406 301.851562 551.671875 336.082031 552.671875 C 352.941406 553.167969 368.367188 553.667969 381.46875 556.277344 C 395.214844 559.007812 406.46875 564.066406 414.40625 573.484375 C 424.777344 585.78125 429.59375 605.785156 426.0625 638.785156 C 422.46875 672.375 408.617188 703.90625 401.972656 736.722656 C 399.476562 749.046875 391.886719 788.667969 396.660156 813.460938 C 398.449219 822.765625 401.761719 829.992188 408.691406 831.617188 C 412.667969 832.550781 416.785156 831.09375 420.71875 828.746094 C 427.453125 824.726562 433.585938 817.972656 437.617188 813.089844 C 461.609375 784.027344 462.445312 745.84375 457.253906 706.257812 C 451.914062 665.613281 440.144531 623.480469 438.953125 587.691406 C 438.835938 584.164062 438.507812 577.300781 440.144531 572.738281 C 441.140625 569.972656 442.828125 567.9375 445.15625 566.996094 C 450.039062 565.03125 457.164062 566.355469 464.585938 569.386719 C 474.417969 573.402344 484.9375 580.140625 490.59375 582.957031 C 515.988281 595.597656 544.488281 609.585938 564.515625 632.265625 C 574.113281 643.132812 583.222656 660.476562 591.230469 681.007812 C 592.007812 680.953125 592.789062 681.0625 593.578125 681.332031 C 598.632812 683.046875 605.175781 688.574219 612.03125 696.074219 C 627 712.445312 644.105469 738.191406 651.835938 748.351562 C 689.734375 798.15625 733.707031 853.511719 750.335938 917.035156 C 763.265625 966.414062 762.960938 1037.652344 739.910156 1086.351562 C 724.179688 1119.589844 697.976562 1142.441406 658.554688 1141.699219 C 641.71875 1141.378906 623.519531 1138.835938 608.121094 1129.730469 C 597.511719 1123.457031 585.859375 1109.960938 573.996094 1096.496094 C 562.691406 1083.660156 551.195312 1070.835938 540.058594 1065.207031 C 531.671875 1060.96875 522.742188 1056.082031 513.605469 1053.070312 C 500.738281 1048.835938 487.414062 1048.429688 474.734375 1059.972656 C 458.324219 1074.90625 449.675781 1096.320312 443.308594 1119.550781 C 436.761719 1143.441406 432.664062 1169.253906 425.601562 1192.304688 C 418.324219 1216.0625 407.867188 1236.898438 388.878906 1250.136719 C 369.960938 1263.324219 342.453125 1269.085938 300.734375 1262.167969 C 256.78125 1254.882812 219.167969 1226.894531 194.351562 1184.777344 C 175.296875 1152.433594 162.375 1115.277344 152.578125 1078.59375 C 150.199219 1069.679688 148.660156 1061.753906 147.894531 1054.777344 C 126.921875 1046.855469 109.851562 1036.167969 95.839844 1019.449219 C 75.203125 994.828125 61.117188 957.023438 51.230469 895.300781 C 46.347656 864.824219 36.5 816.5 46.027344 786.738281 C 46.558594 785.085938 47.5625 784.28125 48.539062 783.890625 C 49.351562 783.570312 50.277344 783.488281 51.320312 783.816406 C 52.5 784.191406 54.375 785.667969 56.363281 788.386719 C 65.71875 801.199219 85.710938 845.585938 89.238281 851.367188 C 115.785156 894.898438 148.425781 929.894531 195.367188 939.910156 C 199.675781 940.828125 204.800781 942.125 209.769531 942.328125 C 214.046875 942.507812 218.230469 941.902344 221.394531 939.007812 C 224.546875 936.121094 225.609375 931.804688 225.773438 927.277344 C 225.960938 922.160156 224.945312 916.742188 223.777344 912.257812 C 217.949219 889.875 204.761719 869.695312 189.097656 854.367188 C 187.785156 853.082031 184.597656 851.5 180.144531 849.46875 C 168.609375 844.207031 149.128906 836.765625 128.890625 827.503906 C 99.308594 813.964844 68.300781 796.421875 57.011719 776.367188 C 55.828125 774.265625 55.21875 771.039062 55.332031 766.9375 C 55.554688 758.863281 58.4375 746.851562 62.765625 734.023438 C 69.171875 715.050781 78.714844 694.238281 87.042969 681.902344 C 90.980469 676.070312 94.804688 672.074219 97.886719 670.570312 C 100.511719 669.296875 104.027344 669.101562 108.296875 670.195312 C 113.578125 671.546875 120.265625 674.90625 127.898438 679.90625 Z M 135.1875 519.25 C 133.035156 523.3125 132.507812 530.144531 132.410156 537.648438 C 132.238281 550.925781 133.816406 566.210938 133.285156 574.164062 C 130.234375 619.816406 130.617188 655.300781 136.453125 685.878906 C 164.386719 706.472656 201.929688 743.863281 231.625 779.027344 C 253.65625 805.117188 271.351562 830.015625 277.785156 845.957031 C 279.601562 850.464844 280.542969 854.332031 280.582031 857.398438 C 280.617188 859.992188 280.027344 862.121094 278.9375 863.765625 C 275.742188 868.582031 270.148438 869.167969 263.527344 866.46875 C 251.765625 861.675781 236.132812 846.226562 232.113281 842.480469 C 184.933594 798.53125 156.460938 764.367188 140.816406 724.707031 C 136.425781 713.574219 133.042969 702.003906 130.550781 689.65625 C 128.410156 688.117188 126.332031 686.683594 124.324219 685.367188 C 117.433594 680.863281 111.441406 677.746094 106.675781 676.523438 C 104.246094 675.898438 102.238281 675.71875 100.746094 676.445312 C 98.328125 677.625 95.550781 680.976562 92.457031 685.558594 C 84.382812 697.519531 75.167969 717.714844 68.957031 736.117188 C 65.4375 746.53125 62.878906 756.367188 62.09375 763.785156 C 61.648438 767.976562 61.636719 771.265625 62.703125 773.164062 C 73.476562 792.308594 103.371094 808.644531 131.609375 821.5625 C 151.84375 830.824219 171.320312 838.265625 182.855469 843.527344 C 188.285156 846.003906 192.0625 848.132812 193.664062 849.699219 C 210.140625 865.820312 223.964844 887.066406 230.097656 910.613281 C 231.6875 916.707031 232.945312 924.34375 231.992188 931.070312 C 231.289062 936.046875 229.390625 940.539062 225.804688 943.824219 C 222.183594 947.140625 217.691406 948.558594 212.890625 948.835938 C 206.539062 949.203125 199.625 947.496094 194.003906 946.296875 C 145.3125 935.90625 111.199219 899.917969 83.660156 854.765625 C 80.585938 849.722656 64.957031 815.207031 54.851562 798.097656 C 53.515625 795.835938 52.285156 793.890625 51.203125 792.394531 C 43.792969 821.507812 53.125 865.855469 57.679688 894.269531 C 67.304688 954.367188 80.75 991.277344 100.84375 1015.253906 C 113.527344 1030.386719 128.828125 1040.324219 147.371094 1047.722656 C 147.226562 1043.707031 147.382812 1040.070312 147.828125 1036.800781 C 149.355469 1025.578125 154.199219 1018.40625 161.550781 1014.679688 C 167.261719 1011.78125 174.632812 1010.988281 183.464844 1012.332031 C 195.804688 1014.210938 211.199219 1020.292969 228.910156 1030.089844 C 252.988281 1043.40625 278.492188 1052.265625 304.617188 1057.5 C 308.332031 1058.246094 348.101562 1059.984375 366.144531 1066.9375 C 371.957031 1069.179688 375.660156 1072.253906 376.640625 1075.460938 C 377.4375 1078.066406 376.925781 1081.066406 373.996094 1084.277344 C 368.675781 1090.109375 360.878906 1092.960938 353.609375 1094.277344 C 351.210938 1094.710938 347.433594 1095.132812 345.023438 1095.269531 C 310.738281 1097.175781 276.425781 1083.550781 242.636719 1077.144531 C 207.738281 1070.527344 178.828125 1065.347656 154.765625 1057.226562 C 155.585938 1063.105469 156.953125 1069.65625 158.886719 1076.90625 C 168.53125 1113.023438 181.21875 1149.617188 199.980469 1181.460938 C 223.75 1221.808594 259.695312 1248.746094 301.804688 1255.726562 C 341.222656 1262.261719 367.269531 1257.242188 385.144531 1244.777344 C 402.953125 1232.363281 412.53125 1212.671875 419.359375 1190.390625 C 426.402344 1167.398438 430.480469 1141.652344 437.007812 1117.824219 C 443.71875 1093.339844 453.042969 1070.878906 470.335938 1055.140625 C 485.128906 1041.675781 500.636719 1041.925781 515.648438 1046.867188 C 525.097656 1049.976562 534.335938 1054.996094 543.003906 1059.378906 C 554.734375 1065.308594 566.988281 1078.660156 578.894531 1092.179688 C 590.253906 1105.066406 601.292969 1118.105469 611.449219 1124.109375 C 625.855469 1132.632812 642.921875 1134.871094 658.679688 1135.167969 C 695.265625 1135.855469 719.40625 1114.402344 734.007812 1083.558594 C 756.453125 1036.140625 756.609375 966.769531 744.019531 918.6875 C 727.609375 855.996094 684.042969 801.460938 646.636719 752.304688 C 638.976562 742.234375 622.042969 716.710938 607.210938 700.484375 C 602.449219 695.273438 597.988281 691.015625 594.15625 688.773438 C 596.757812 695.9375 599.226562 703.421875 601.535156 711.09375 C 616.480469 760.667969 624.972656 818.171875 621.351562 849.015625 C 617.792969 879.390625 602.761719 902.523438 580.9375 919.371094 C 566.210938 930.738281 554.988281 936.945312 546.660156 939.261719 C 540.277344 941.039062 535.363281 940.609375 531.667969 938.71875 C 525.625 935.625 522.464844 928.261719 522.089844 917.953125 C 520.863281 884.5 547.585938 817.71875 554.535156 797.242188 C 562.089844 774.96875 567.828125 751.929688 573.183594 728.785156 C 574.050781 725.046875 577.449219 702.683594 582.414062 690.621094 C 583.414062 688.195312 584.511719 686.148438 585.652344 684.621094 C 577.875 664.375 569.03125 647.242188 559.621094 636.589844 C 540.152344 614.546875 512.359375 601.09375 487.679688 588.800781 C 482.121094 586.03125 471.785156 579.382812 462.117188 575.433594 C 456.535156 573.15625 451.261719 571.578125 447.597656 573.058594 C 447.109375 573.253906 446.839844 573.722656 446.585938 574.246094 C 446.273438 574.890625 446.050781 575.636719 445.875 576.4375 C 445.070312 580.191406 445.394531 584.886719 445.484375 587.480469 C 446.664062 623.074219 458.417969 664.980469 463.726562 705.402344 C 469.171875 746.882812 467.785156 786.796875 442.652344 817.246094 C 438.234375 822.601562 431.453125 829.945312 424.066406 834.355469 C 418.582031 837.628906 412.746094 839.277344 407.199219 837.976562 C 398.035156 835.824219 392.613281 826.996094 390.246094 814.695312 C 385.316406 789.089844 392.992188 748.15625 395.570312 735.429688 C 402.179688 702.808594 415.996094 671.476562 419.570312 638.089844 C 422.828125 607.617188 418.992188 589.046875 409.417969 577.695312 C 402.398438 569.371094 392.347656 565.097656 380.195312 562.679688 C 367.40625 560.132812 352.347656 559.683594 335.890625 559.199219 C 301.480469 558.195312 267.078125 558.453125 232.667969 554.617188 C 207.859375 551.847656 182.535156 547.234375 159.699219 534.441406 C 157.453125 533.183594 146.046875 524.144531 138.371094 520.410156 C 137.28125 519.878906 135.917969 519.457031 135.1875 519.25 Z M 154.027344 1050.222656 C 178.316406 1058.824219 207.84375 1063.898438 243.851562 1070.726562 C 277.132812 1077.035156 310.894531 1090.628906 344.660156 1088.746094 C 346.847656 1088.625 350.273438 1088.246094 352.445312 1087.851562 C 358.378906 1086.777344 364.828125 1084.636719 369.167969 1079.878906 C 369.921875 1079.050781 370.421875 1078.367188 370.4375 1077.660156 C 370.449219 1076.992188 369.910156 1076.496094 369.261719 1075.949219 C 367.96875 1074.855469 366.078125 1073.910156 363.796875 1073.03125 C 346.074219 1066.199219 306.984375 1064.636719 303.332031 1063.90625 C 276.558594 1058.539062 250.421875 1049.453125 225.75 1035.804688 C 208.871094 1026.46875 194.238281 1020.578125 182.480469 1018.789062 C 175.246094 1017.6875 169.183594 1018.132812 164.503906 1020.503906 C 158.863281 1023.363281 155.46875 1029.066406 154.300781 1037.679688 C 153.800781 1041.363281 153.703125 1045.535156 154.027344 1050.222656 Z M 588.628906 692.667969 C 587.902344 694.382812 587.207031 696.359375 586.550781 698.476562 C 582.78125 710.574219 580.269531 727.117188 579.546875 730.257812 C 574.144531 753.613281 568.347656 776.863281 560.71875 799.34375 C 553.898438 819.433594 527.414062 884.890625 528.613281 917.714844 C 528.855469 924.277344 530.0625 929.429688 533.390625 932.09375 C 536.625 934.691406 541.609375 934.488281 548.851562 931.632812 C 556.152344 928.75 565.382812 923.125 576.949219 914.203125 C 597.410156 898.40625 611.527344 876.734375 614.867188 848.253906 C 618.410156 818 609.945312 761.609375 595.285156 712.976562 C 593.1875 706.015625 590.960938 699.214844 588.628906 692.667969 Z M 138.550781 695.667969 C 140.753906 704.921875 143.515625 713.746094 146.894531 722.3125 C 162.234375 761.207031 190.296875 794.605469 236.566406 837.703125 C 240.347656 841.226562 254.929688 855.914062 265.992188 860.421875 C 267.5625 861.0625 269.035156 861.484375 270.371094 861.546875 C 271.65625 861.601562 272.765625 861.257812 273.492188 860.15625 C 274.105469 859.234375 274.152344 857.933594 273.980469 856.355469 C 273.742188 854.109375 272.953125 851.441406 271.726562 848.398438 C 265.457031 832.867188 248.109375 808.667969 226.632812 783.238281 C 199.339844 750.917969 165.355469 716.648438 138.550781 695.667969 " fill-opacity="1" fill-rule="evenodd"/></g></g></g><g clip-path="url(#id7)"><g clip-path="url(#id8)"><g clip-path="url(#id9)"><g clip-path="url(#id10)"><path fill="rgb(31.369019%, 37.649536%, 24.708557%)" d="M 1114.929688 1041.996094 C 1107.683594 1053.285156 1099.691406 1064.113281 1090.453125 1074.378906 C 1030.941406 1140.542969 905.609375 1200.101562 817.332031 1159.714844 C 803.949219 1153.59375 792.367188 1144.617188 782.464844 1133.789062 C 702.269531 1046.050781 854.585938 978.042969 820.902344 901.550781 C 811.4375 880.0625 790.195312 865.589844 766.042969 856.1875 C 706.585938 848.675781 637.519531 857.234375 588.882812 815.632812 C 570.464844 799.878906 560.082031 775.953125 554.667969 752.851562 C 536.65625 676 572.253906 643.234375 620.617188 593.226562 C 640.789062 572.367188 661.050781 551.09375 680.023438 528.917969 C 721.285156 461.570312 743.058594 409.722656 824.722656 380.625 C 850.632812 371.390625 877.902344 366.890625 904.5 360.183594 C 911.164062 358.5 929.671875 353.046875 930.386719 355.230469 C 932.472656 361.554688 903.191406 399.414062 899.550781 404.234375 C 868.917969 444.820312 831.820312 485.613281 818.753906 535.90625 C 815.136719 549.785156 806.214844 578.1875 819.9375 589.640625 C 822.59375 591.851562 825.4375 593.304688 828.402344 594.121094 C 835.863281 591.824219 842.859375 588.574219 849.390625 584.554688 C 850.742188 583.269531 852.066406 581.96875 853.386719 580.703125 C 863.5 570.996094 872.207031 560.578125 879.683594 549.359375 C 891.898438 521.332031 905.5 493.882812 915.730469 464.894531 C 925.523438 437.136719 936.003906 409.589844 944.816406 381.492188 C 947.664062 372.421875 948.914062 352.824219 956.667969 346.054688 C 964.523438 339.195312 984.085938 346.367188 992.730469 348.375 C 1024.367188 355.722656 1055.109375 363.390625 1086.332031 372.550781 C 1113.652344 380.550781 1137.832031 382.910156 1166.257812 380.351562 C 1171.417969 379.894531 1201.792969 373.292969 1204.722656 374.820312 C 1205.578125 375.269531 1204.046875 393.671875 1203.972656 395.902344 C 1203.238281 418.21875 1204.703125 440.804688 1206.773438 463.027344 C 1208.292969 479.382812 1211.527344 495.5625 1215.257812 511.628906 C 1219.347656 526.46875 1222.742188 541.523438 1226.257812 556.527344 C 1227.816406 562.371094 1229.433594 568.363281 1230.582031 574.371094 C 1238.621094 605.019531 1251.988281 634.867188 1255.191406 666.511719 C 1256.457031 679.011719 1258.792969 693.894531 1248.25 702.976562 C 1196.398438 747.660156 1123.445312 731.28125 1061.230469 732.289062 C 1045.429688 732.542969 998.410156 734.539062 1004.628906 761.171875 C 1009.75 783.105469 1038.820312 786.75 1057.035156 787.707031 C 1104.964844 790.214844 1155.085938 781.589844 1198.625 761.335938 C 1212.101562 755.0625 1225.308594 747.472656 1237.355469 738.726562 C 1238.625 737.804688 1247.757812 729.273438 1249.507812 731.996094 C 1251.660156 735.367188 1249.875 743.484375 1249.757812 747.183594 C 1249.273438 762.203125 1248.679688 777.136719 1247.242188 792.105469 C 1245.730469 807.867188 1244.046875 823.601562 1239.195312 838.738281 C 1235.644531 849.816406 1231.625 861.445312 1224.765625 870.964844 C 1201.324219 903.515625 1162.929688 907.121094 1125.589844 906.003906 C 1102.027344 910.179688 1078.433594 913.910156 1055.144531 910.953125 C 1016.949219 906.101562 973.464844 880.5 935.136719 895.730469 C 909.484375 905.925781 937.402344 925.101562 950.777344 932.601562 C 983.546875 950.96875 1025.476562 965.136719 1063.253906 966.601562 C 1099.429688 968.011719 1129.433594 946.5625 1157.8125 926.527344 C 1161.078125 924.226562 1191.570312 901.191406 1196.097656 902.492188 C 1199.011719 903.328125 1194.953125 918.390625 1194.550781 919.886719 C 1189.84375 937.523438 1179.007812 953.285156 1168.890625 968.179688 C 1154.851562 988.847656 1136.519531 1016.863281 1114.929688 1041.996094 Z M 921.183594 581.34375 C 931.964844 559.050781 936.820312 533.570312 945.246094 510.324219 C 950.429688 496.042969 955.644531 481.621094 962.367188 467.980469 C 968.109375 456.355469 975.894531 445.101562 988.605469 440.59375 C 1009.410156 433.230469 1033.632812 448.4375 1032.976562 471.464844 C 1032.554688 486.203125 1022.378906 500.476562 1013.113281 511.191406 C 994.550781 532.664062 972.566406 550.734375 954.210938 572.523438 C 947.835938 580.089844 928.917969 608.0625 918.664062 593.027344 Z M 747.390625 743.929688 C 741.125 729.929688 739.546875 713.132812 737.875 698.109375 C 733.777344 661.28125 736.3125 622.734375 744.550781 586.632812 C 748.949219 567.371094 758.101562 550.179688 763.347656 531.292969 C 765.195312 524.652344 767.792969 512.34375 757.550781 511.75 C 743.460938 510.929688 729.039062 523.535156 719.484375 532.410156 C 708.167969 542.925781 695.921875 556.1875 691.371094 571.363281 C 686.609375 587.246094 691.019531 606 694.324219 621.703125 C 698.871094 643.285156 702.222656 665.425781 709.511719 686.300781 C 716.140625 705.273438 723.375 725.378906 734.46875 742.246094 C 735.527344 743.855469 744.539062 757.941406 746.765625 755.351562 L 747.390625 743.929688 " fill-opacity="1" fill-rule="evenodd"/></g></g></g></g><g clip-path="url(#id11)"><g clip-path="url(#id12)"><g clip-path="url(#id13)"><path fill="rgb(97.648621%, 74.899292%, 78.42865%)" d="M 1062 430.820312 C 1088.976562 417.820312 1121.710938 407.925781 1163.835938 398.460938 C 1171.539062 396.730469 1185.609375 390.914062 1198.261719 387.34375 C 1207.464844 384.75 1216.003906 383.449219 1221.324219 385.058594 C 1223.441406 385.703125 1225.128906 387.910156 1225.082031 391.757812 C 1224.984375 399.578125 1217.898438 417.375 1217.230469 420.328125 C 1211.636719 444.984375 1214.410156 469.703125 1218.648438 493.433594 C 1224.707031 527.339844 1234.679688 560.085938 1243.433594 593.191406 C 1247.746094 609.496094 1251.640625 624.429688 1252.859375 637.738281 C 1254.140625 651.691406 1252.484375 663.917969 1245.707031 674.199219 C 1236.859375 687.636719 1219.046875 697.933594 1186.402344 703.914062 C 1153.171875 709.996094 1119.003906 705.667969 1085.648438 708.605469 C 1073.125 709.710938 1032.980469 713.679688 1010.558594 725.289062 C 1002.144531 729.648438 996.15625 734.875 996.566406 741.984375 C 996.796875 746.058594 999.363281 749.59375 1002.730469 752.699219 C 1008.5 758.015625 1016.714844 761.980469 1022.539062 764.460938 C 1057.214844 779.214844 1094.066406 769.183594 1130.554688 752.96875 C 1168.007812 736.3125 1205.070312 713.070312 1239.046875 701.773438 C 1242.398438 700.660156 1248.886719 698.394531 1253.726562 698.671875 C 1256.660156 698.839844 1259.089844 699.878906 1260.652344 701.847656 C 1263.921875 705.96875 1264.675781 713.175781 1263.875 721.15625 C 1262.816406 731.722656 1259.339844 743.722656 1258.246094 749.941406 C 1253.332031 777.882812 1248.007812 809.179688 1231.945312 834.824219 C 1224.25 847.109375 1210.203125 860.765625 1192.789062 874.273438 C 1193.058594 875 1193.179688 875.78125 1193.144531 876.613281 C 1192.929688 881.945312 1189.488281 889.792969 1184.242188 898.492188 C 1172.792969 917.492188 1152.960938 941.203125 1145.414062 951.5 C 1108.414062 1001.972656 1067.8125 1059.847656 1011.621094 1093.820312 C 967.941406 1120.234375 899.546875 1140.15625 846.304688 1131.875 C 809.96875 1126.222656 780.621094 1107.585938 770.148438 1069.574219 C 765.671875 1053.339844 762.945312 1035.167969 767.308594 1017.816406 C 770.3125 1005.863281 779.949219 990.859375 789.492188 975.660156 C 798.589844 961.179688 807.625 946.519531 809.863281 934.242188 C 811.546875 924.996094 813.699219 915.046875 813.992188 905.433594 C 814.402344 891.890625 811.007812 878.996094 796.34375 870.113281 C 777.367188 858.621094 754.378906 856.402344 730.292969 856.890625 C 705.53125 857.394531 679.617188 860.789062 655.507812 860.5625 C 630.664062 860.324219 607.714844 856.210938 589.632812 841.761719 C 571.617188 827.363281 558.285156 802.625 553.078125 760.65625 C 547.59375 716.441406 563.753906 672.429688 597.097656 636.683594 C 622.703125 609.234375 654.664062 586.292969 687.058594 566.492188 C 694.933594 561.679688 702.09375 557.953125 708.566406 555.242188 C 710.210938 532.882812 715.613281 513.484375 727.667969 495.300781 C 745.421875 468.527344 777.675781 444.289062 834.050781 417.292969 C 861.890625 403.960938 905.433594 380.800781 936.675781 381.492188 C 938.410156 381.535156 939.464844 382.265625 940.117188 383.089844 C 940.65625 383.78125 940.996094 384.648438 940.976562 385.738281 C 940.953125 386.976562 940.070312 389.195312 938.027344 391.871094 C 928.394531 404.476562 891.507812 436.242188 886.964844 441.265625 C 852.761719 479.078125 828.464844 520.308594 832.183594 568.164062 C 832.523438 572.554688 832.734375 577.835938 833.949219 582.660156 C 834.996094 586.8125 836.761719 590.652344 840.4375 592.863281 C 844.097656 595.066406 848.535156 594.859375 852.925781 593.734375 C 857.882812 592.460938 862.792969 589.949219 866.761719 587.558594 C 886.570312 575.613281 902.175781 557.242188 912.429688 537.875 C 913.289062 536.25 913.902344 532.742188 914.585938 527.898438 C 916.359375 515.34375 917.964844 494.550781 921.101562 472.515625 C 925.6875 440.3125 933.707031 405.597656 949.738281 389.082031 C 951.414062 387.351562 954.332031 385.847656 958.300781 384.792969 C 966.109375 382.71875 978.441406 382.074219 991.972656 382.582031 C 1011.984375 383.339844 1034.644531 386.585938 1048.839844 391.070312 C 1055.550781 393.191406 1060.46875 395.722656 1062.78125 398.25 C 1064.75 400.40625 1065.933594 403.722656 1066.097656 408.125 C 1066.296875 413.574219 1064.976562 420.941406 1062.351562 429.675781 Z M 1218.46875 391.070312 C 1213.960938 390.160156 1207.257812 391.59375 1200.035156 393.632812 C 1187.257812 397.234375 1173.050781 403.085938 1165.269531 404.832031 C 1120.628906 414.863281 1086.714844 425.300781 1059.050781 439.574219 C 1047.226562 472.207031 1022.03125 518.816406 996.742188 557.269531 C 977.976562 585.800781 959.121094 609.835938 945.664062 620.527344 C 941.859375 623.546875 938.414062 625.550781 935.484375 626.457031 C 933.007812 627.226562 930.800781 627.265625 928.914062 626.6875 C 923.390625 624.992188 921.238281 619.792969 921.949219 612.675781 C 923.207031 600.039062 933.585938 580.664062 936.035156 575.746094 C 964.789062 518.035156 989.464844 481.035156 1023.054688 454.78125 C 1032.484375 447.410156 1042.621094 440.882812 1053.75 434.988281 C 1054.621094 432.5 1055.402344 430.101562 1056.097656 427.800781 C 1058.460938 419.914062 1059.75 413.28125 1059.570312 408.367188 C 1059.480469 405.859375 1059.082031 403.886719 1057.960938 402.660156 C 1056.144531 400.675781 1052.140625 398.964844 1046.871094 397.296875 C 1033.109375 392.949219 1011.128906 389.84375 991.722656 389.109375 C 980.734375 388.695312 970.578125 389.03125 963.242188 390.382812 C 959.097656 391.144531 955.9375 392.070312 954.421875 393.632812 C 939.125 409.394531 931.941406 442.695312 927.566406 473.4375 C 924.433594 495.46875 922.824219 516.257812 921.050781 528.808594 C 920.21875 534.722656 919.25 538.949219 918.203125 540.929688 C 907.417969 561.300781 890.96875 580.589844 870.132812 593.152344 C 864.738281 596.402344 857.773438 599.777344 851.054688 600.773438 C 846.082031 601.507812 841.234375 600.964844 837.070312 598.460938 C 832.859375 595.925781 830.226562 592.023438 828.597656 587.5 C 826.445312 581.511719 826.117188 574.398438 825.671875 568.667969 C 821.816406 519.03125 846.640625 476.105469 882.121094 436.886719 C 886.085938 432.503906 914.75 407.722656 928.285156 393.179688 C 930.074219 391.253906 931.589844 389.523438 932.71875 388.058594 C 902.699219 389.21875 862.824219 410.753906 836.871094 423.183594 C 781.976562 449.46875 750.398438 472.835938 733.113281 498.90625 C 722.199219 515.363281 717.011719 532.855469 715.183594 552.738281 C 718.992188 551.457031 722.523438 550.578125 725.785156 550.078125 C 736.976562 548.355469 745.230469 550.964844 750.890625 556.953125 C 755.289062 561.609375 758.144531 568.453125 759.359375 577.300781 C 761.058594 589.667969 759.597656 606.15625 755.230469 625.917969 C 749.292969 652.785156 748.039062 679.757812 750.433594 706.292969 C 750.773438 710.070312 760.394531 748.695312 758.84375 767.96875 C 758.347656 774.179688 756.449219 778.601562 753.648438 780.453125 C 751.378906 781.957031 748.359375 782.3125 744.445312 780.417969 C 737.34375 776.972656 732.398438 770.304688 729.070312 763.707031 C 727.976562 761.535156 726.5 758.03125 725.683594 755.753906 C 714.125 723.425781 717.453125 686.65625 714.007812 652.433594 C 710.449219 617.09375 707.210938 587.90625 708.167969 562.527344 C 702.761719 564.980469 696.867188 568.148438 690.464844 572.0625 C 658.574219 591.558594 627.082031 614.113281 601.871094 641.136719 C 569.929688 675.382812 554.304688 717.496094 559.558594 759.851562 C 564.480469 799.503906 576.6875 823.054688 593.710938 836.660156 C 610.667969 850.210938 632.265625 853.808594 655.570312 854.03125 C 679.617188 854.257812 705.460938 850.863281 730.164062 850.363281 C 755.546875 849.847656 779.726562 852.414062 799.726562 864.527344 C 816.835938 874.890625 820.996094 889.832031 820.519531 905.632812 C 820.21875 915.570312 818.03125 925.855469 816.289062 935.410156 C 813.929688 948.34375 804.609375 963.882812 795.023438 979.136719 C 785.886719 993.683594 776.519531 1007.96875 773.644531 1019.410156 C 769.558594 1035.644531 772.257812 1052.644531 776.445312 1067.839844 C 786.164062 1103.117188 813.589844 1120.175781 847.308594 1125.425781 C 899.148438 1133.488281 965.710938 1113.949219 1008.242188 1088.234375 C 1063.699219 1054.703125 1103.628906 997.453125 1140.144531 947.632812 C 1147.628906 937.429688 1167.296875 913.949219 1178.648438 895.121094 C 1182.292969 889.078125 1185.109375 883.589844 1186.171875 879.28125 C 1180.042969 883.808594 1173.566406 888.296875 1166.863281 892.691406 C 1123.570312 921.089844 1070.835938 945.550781 1040.238281 950.835938 C 1010.097656 956.042969 983.652344 948.199219 961.304688 932.050781 C 946.226562 921.15625 937.085938 912.15625 932.503906 904.828125 C 928.984375 899.210938 928.003906 894.375 928.769531 890.296875 C 930.019531 883.625 936.183594 878.503906 945.964844 875.21875 C 977.691406 864.550781 1049.308594 871.21875 1070.917969 872.070312 C 1094.417969 872.996094 1118.140625 871.957031 1141.855469 870.523438 C 1145.683594 870.292969 1168.089844 867.210938 1181.066406 868.546875 C 1183.675781 868.816406 1185.953125 869.289062 1187.742188 869.945312 C 1204.945312 856.746094 1218.863281 843.402344 1226.410156 831.355469 C 1242.019531 806.433594 1247.035156 775.964844 1251.816406 748.808594 C 1252.894531 742.695312 1256.335938 730.898438 1257.375 720.503906 C 1257.976562 714.503906 1257.992188 709.003906 1255.535156 705.90625 C 1255.207031 705.496094 1254.683594 705.371094 1254.109375 705.273438 C 1253.402344 705.15625 1252.621094 705.15625 1251.804688 705.21875 C 1247.976562 705.507812 1243.566406 707.152344 1241.105469 707.972656 C 1207.308594 719.210938 1170.464844 742.371094 1133.210938 758.933594 C 1094.980469 775.925781 1056.3125 785.925781 1019.984375 770.46875 C 1013.597656 767.75 1004.628906 763.332031 998.304688 757.5 C 993.605469 753.171875 990.371094 748.046875 990.042969 742.355469 C 989.507812 732.957031 996.433594 725.25 1007.554688 719.492188 C 1030.710938 707.5 1072.140625 703.242188 1085.074219 702.101562 C 1118.230469 699.179688 1152.195312 703.535156 1185.222656 697.488281 C 1215.367188 691.964844 1232.085938 683.015625 1240.253906 670.613281 C 1246.242188 661.519531 1247.488281 650.667969 1246.355469 638.332031 C 1245.167969 625.34375 1241.328125 610.777344 1237.121094 594.863281 C 1228.320312 561.582031 1218.308594 528.667969 1212.222656 494.582031 C 1207.835938 470.007812 1205.070312 444.414062 1210.859375 418.886719 C 1211.425781 416.375 1216.855469 402.875 1218.257812 394.453125 C 1218.457031 393.257812 1218.476562 391.832031 1218.46875 391.070312 Z M 714.671875 559.832031 C 713.320312 585.5625 716.832031 615.3125 720.503906 651.78125 C 723.898438 685.484375 720.449219 721.714844 731.835938 753.554688 C 732.574219 755.617188 733.910156 758.796875 734.902344 760.769531 C 737.617188 766.152344 741.5 771.730469 747.296875 774.542969 C 748.300781 775.03125 749.101562 775.316406 749.785156 775.128906 C 750.425781 774.949219 750.746094 774.292969 751.089844 773.515625 C 751.769531 771.964844 752.140625 769.886719 752.335938 767.445312 C 753.855469 748.511719 744.261719 710.589844 743.925781 706.878906 C 741.476562 679.683594 742.769531 652.042969 748.851562 624.511719 C 753.015625 605.679688 754.511719 589.976562 752.890625 578.191406 C 751.894531 570.941406 749.746094 565.253906 746.144531 561.441406 C 741.800781 556.84375 735.367188 555.210938 726.777344 556.53125 C 723.105469 557.097656 719.074219 558.191406 714.671875 559.832031 Z M 1180.867188 875.085938 C 1179.015625 874.875 1176.925781 874.769531 1174.710938 874.742188 C 1162.039062 874.5625 1145.464844 876.847656 1142.246094 877.046875 C 1118.316406 878.492188 1094.378906 879.53125 1070.660156 878.597656 C 1049.457031 877.761719 979.179688 870.941406 948.042969 881.40625 C 941.816406 883.5 937.222656 886.121094 935.609375 890.066406 C 934.039062 893.910156 935.644531 898.632812 940.441406 904.761719 C 945.273438 910.945312 953.289062 918.199219 965.128906 926.757812 C 986.082031 941.898438 1010.871094 949.28125 1039.125 944.402344 C 1069.140625 939.214844 1120.8125 915.089844 1163.28125 887.230469 C 1169.363281 883.246094 1175.253906 879.179688 1180.867188 875.085938 Z M 1050.257812 444.367188 C 1042.011719 449.105469 1034.332031 454.257812 1027.074219 459.925781 C 994.136719 485.675781 970.074219 522.0625 941.878906 578.660156 C 939.574219 583.285156 929.628906 601.4375 928.445312 613.324219 C 928.277344 615.011719 928.289062 616.546875 928.613281 617.839844 C 928.921875 619.089844 929.566406 620.054688 930.828125 620.441406 C 931.890625 620.765625 933.148438 620.441406 934.613281 619.832031 C 936.699219 618.964844 939.03125 617.449219 941.601562 615.410156 C 954.71875 604.992188 972.996094 581.488281 991.285156 553.679688 C 1014.53125 518.332031 1037.746094 476.023438 1050.257812 444.367188 " fill-opacity="1" fill-rule="evenodd"/></g></g></g><g clip-path="url(#id14)"><g clip-path="url(#id15)"><g clip-path="url(#id16)"><path fill="rgb(40.388489%, 48.239136%, 32.159424%)" d="M 748.429688 797.929688 C 736.578125 791.640625 724.304688 786.125 711.21875 781.707031 C 626.914062 753.21875 488.476562 762.769531 431.34375 841.25 C 422.679688 853.144531 416.984375 866.648438 413.664062 880.941406 C 386.789062 996.730469 552.886719 981.316406 561.035156 1064.5 C 563.324219 1087.867188 551.90625 1110.898438 535.464844 1130.9375 C 487.328125 1166.632812 422.9375 1193.039062 400.949219 1253.140625 C 392.621094 1275.90625 395.304688 1301.847656 401.914062 1324.636719 C 423.898438 1400.449219 470.988281 1411.550781 537.65625 1431.421875 C 565.46875 1439.710938 593.554688 1448.316406 620.964844 1458.339844 C 689.945312 1496.804688 734.34375 1531.316406 819.789062 1516.636719 C 846.898438 1511.980469 872.871094 1502.527344 899.335938 1495.335938 C 905.972656 1493.53125 924.777344 1489.210938 924.332031 1486.957031 C 923.046875 1480.425781 878.960938 1461.785156 873.425781 1459.367188 C 826.828125 1439.015625 774.496094 1421.652344 738.449219 1384.230469 C 728.488281 1373.90625 706.789062 1353.527344 713.132812 1336.816406 C 714.363281 1333.585938 716.128906 1330.925781 718.3125 1328.761719 C 725.941406 1327.105469 733.632812 1326.507812 741.292969 1326.804688 C 743.101562 1327.261719 744.894531 1327.746094 746.667969 1328.203125 C 760.242188 1331.707031 772.9375 1336.515625 784.953125 1342.625 C 809.34375 1361.0625 834.65625 1378.320312 857.785156 1398.566406 C 879.929688 1417.957031 902.570312 1436.828125 924.03125 1456.996094 C 930.957031 1463.503906 941.65625 1479.972656 951.734375 1482.070312 C 961.945312 1484.195312 975.476562 1468.351562 982.027344 1462.363281 C 1005.996094 1440.449219 1029.027344 1418.691406 1051.75 1395.402344 C 1071.636719 1375.027344 1091.550781 1361.117188 1117.582031 1349.410156 C 1122.308594 1347.28125 1152.015625 1338.140625 1153.816406 1335.371094 C 1154.34375 1334.5625 1143.988281 1319.273438 1142.832031 1317.367188 C 1131.246094 1298.273438 1121.449219 1277.875 1112.355469 1257.492188 C 1105.660156 1242.492188 1100.546875 1226.804688 1095.917969 1210.972656 C 1092.210938 1196.03125 1087.785156 1181.246094 1083.496094 1166.445312 C 1081.984375 1160.589844 1080.457031 1154.578125 1078.511719 1148.777344 C 1070.492188 1118.121094 1067.503906 1085.554688 1054.78125 1056.402344 C 1049.753906 1044.890625 1044.492188 1030.773438 1030.855469 1028.027344 C 963.753906 1014.507812 908.203125 1064.554688 853.484375 1094.179688 C 839.589844 1101.707031 797.632812 1123.023438 789.992188 1096.761719 C 783.703125 1075.132812 807.25 1057.703125 822.65625 1047.9375 C 863.199219 1022.25 911.109375 1005.191406 958.984375 1001.496094 C 973.808594 1000.355469 989.039062 1000.496094 1003.828125 1002.210938 C 1005.386719 1002.390625 1017.53125 1005.347656 1017.71875 1002.117188 C 1017.945312 998.125 1012.40625 991.925781 1010.488281 988.761719 C 1002.703125 975.90625 994.863281 963.183594 986.269531 950.839844 C 977.226562 937.84375 968.046875 924.957031 956.394531 914.144531 C 947.867188 906.230469 938.664062 898.066406 928.019531 893.132812 C 891.625 876.257812 856.394531 891.941406 824.402344 911.222656 C 801.816406 919.136719 779.425781 927.453125 760.578125 941.449219 C 729.667969 964.410156 704.324219 1008.039062 663.449219 1013.5625 C 636.09375 1017.253906 651.023438 986.851562 659.003906 973.757812 C 678.558594 941.679688 708.15625 908.777344 740.363281 888.972656 C 771.199219 870.011719 807.863281 873.992188 842.421875 877.539062 C 846.394531 877.941406 884.265625 883.066406 887.570312 879.710938 C 889.703125 877.554688 878.78125 866.417969 877.695312 865.3125 C 864.945312 852.25 847.773438 843.824219 831.652344 835.804688 C 809.28125 824.675781 779.570312 809.246094 748.429688 797.929688 Z M 805.441406 1294.402344 C 825.765625 1308.546875 842.492188 1328.371094 861.234375 1344.503906 C 872.753906 1354.40625 884.371094 1364.421875 896.917969 1373.011719 C 907.621094 1380.324219 919.925781 1386.316406 933.214844 1384.011719 C 954.957031 1380.234375 968.609375 1355.101562 956.75 1335.351562 C 949.15625 1322.714844 933.285156 1315.265625 919.960938 1310.46875 C 893.25 1300.859375 865.230469 1295.886719 838.550781 1285.894531 C 829.285156 1282.425781 799.078125 1267.324219 797.515625 1285.457031 Z M 574.253906 1237.917969 C 575.65625 1253.191406 582.515625 1268.601562 588.425781 1282.519531 C 602.910156 1316.625 624.023438 1348.976562 648.90625 1376.398438 C 662.179688 1391.03125 678.589844 1401.527344 692.421875 1415.414062 C 697.285156 1420.296875 705.585938 1429.75 696.949219 1435.292969 C 685.074219 1442.914062 666.324219 1439 653.644531 1435.945312 C 638.625 1432.332031 621.449219 1426.777344 610.042969 1415.785156 C 598.105469 1404.277344 592.753906 1385.769531 587.933594 1370.460938 C 581.316406 1349.421875 573.378906 1328.484375 569.5 1306.714844 C 565.972656 1286.929688 562.417969 1265.859375 563.816406 1245.722656 C 563.953125 1243.796875 564.898438 1227.101562 568.105469 1228.269531 L 574.253906 1237.917969 " fill-opacity="1" fill-rule="evenodd"/></g></g></g><g clip-path="url(#id17)"><g clip-path="url(#id18)"><g clip-path="url(#id19)"><path fill="rgb(97.648621%, 74.899292%, 78.42865%)" d="M 996.925781 1411.671875 C 1028.761719 1413.230469 1064.945312 1409.359375 1110.160156 1401.175781 C 1118.429688 1399.679688 1134.628906 1399.550781 1148.511719 1397.800781 C 1158.609375 1396.53125 1167.515625 1394.265625 1172.066406 1390.484375 C 1173.871094 1388.976562 1174.613281 1386.113281 1172.96875 1382.359375 C 1169.632812 1374.734375 1155.3125 1360.230469 1153.433594 1357.609375 C 1137.726562 1335.761719 1130.203125 1310.386719 1124.519531 1285.367188 C 1116.402344 1249.621094 1112.601562 1213.394531 1107.457031 1177.316406 C 1104.925781 1159.546875 1102.554688 1143.296875 1098.234375 1129.75 C 1093.703125 1115.539062 1087.011719 1104.242188 1076.109375 1096.972656 C 1061.863281 1087.46875 1040.136719 1084.765625 1005.660156 1092.433594 C 970.5625 1100.246094 938.871094 1118.652344 904.957031 1129.59375 C 892.222656 1133.703125 851.226562 1146.457031 824.4375 1144.367188 C 814.386719 1143.585938 806.351562 1140.945312 803.804688 1133.808594 C 802.339844 1129.714844 803.390625 1125.1875 805.402344 1120.75 C 808.855469 1113.144531 815.265625 1105.855469 819.945312 1101.011719 C 847.816406 1072.171875 888.097656 1066.730469 930.582031 1067.5 C 974.199219 1068.300781 1020.160156 1075.71875 1058.152344 1072.707031 C 1061.898438 1072.410156 1069.195312 1071.941406 1073.824219 1069.664062 C 1076.628906 1068.28125 1078.582031 1066.257812 1079.296875 1063.679688 C 1080.792969 1058.285156 1078.542969 1050.90625 1074.453125 1043.417969 C 1069.03125 1033.5 1060.648438 1023.179688 1057 1017.535156 C 1040.601562 992.1875 1022.40625 963.71875 996.035156 945.242188 C 983.398438 936.390625 963.96875 928.828125 941.300781 922.804688 C 941.265625 921.980469 941.054688 921.164062 940.679688 920.367188 C 938.257812 915.226562 931.632812 908.964844 922.882812 902.609375 C 903.785156 888.734375 874.519531 873.714844 862.851562 866.75 C 805.660156 832.613281 741.875 792.71875 672.714844 782.710938 C 618.949219 774.929688 543.648438 783.75 494.894531 813.9375 C 461.625 834.539062 440.585938 864.96875 446.074219 906.570312 C 448.417969 924.335938 453.277344 943.277344 464.746094 958.476562 C 472.648438 968.949219 488.308594 979.660156 503.964844 990.601562 C 518.886719 1001.023438 533.820312 1011.648438 541.101562 1022.753906 C 546.585938 1031.117188 552.820312 1039.976562 557.089844 1049.28125 C 563.105469 1062.382812 565.125 1076.425781 554.433594 1091.210938 C 540.597656 1110.34375 518.980469 1122.046875 495.171875 1131.550781 C 470.691406 1141.324219 443.882812 1148.734375 420.347656 1158.953125 C 396.09375 1169.484375 375.304688 1183.03125 363.570312 1204.6875 C 351.878906 1226.265625 349.070312 1256.042969 361.359375 1299.335938 C 374.308594 1344.945312 408.394531 1381.386719 455.894531 1402.601562 C 492.375 1418.894531 533.210938 1428.128906 573.175781 1434.109375 C 582.886719 1435.5625 591.449219 1436.246094 598.921875 1436.21875 C 609.796875 1457.453125 623.136719 1474.230469 642.492188 1487.054688 C 670.988281 1505.941406 712.652344 1516.328125 779.101562 1519.417969 C 811.917969 1520.945312 864.195312 1525.597656 894.53125 1511.96875 C 896.21875 1511.210938 896.945312 1510.054688 897.242188 1508.976562 C 897.484375 1508.078125 897.460938 1507.085938 896.988281 1506.027344 C 896.449219 1504.820312 894.667969 1503.011719 891.554688 1501.238281 C 876.890625 1492.871094 827.566406 1477.027344 821.03125 1473.984375 C 771.828125 1451.101562 730.921875 1420.761719 714.730469 1372.316406 C 713.246094 1367.871094 711.261719 1362.605469 710.453125 1357.375 C 709.757812 1352.871094 709.894531 1348.375 712.582031 1344.683594 C 715.257812 1341.007812 719.691406 1339.371094 724.460938 1338.65625 C 729.851562 1337.847656 735.703125 1338.273438 740.582031 1338.972656 C 764.953125 1342.46875 787.863281 1354.003906 805.941406 1368.742188 C 807.460938 1369.976562 809.511719 1373.160156 812.191406 1377.625 C 819.132812 1389.195312 829.328125 1408.910156 841.535156 1429.207031 C 859.378906 1458.875 881.632812 1489.574219 904.1875 1499.117188 C 906.550781 1500.117188 910.035156 1500.378906 914.363281 1499.769531 C 922.875 1498.570312 935.230469 1494.089844 948.28125 1487.980469 C 967.585938 1478.941406 988.453125 1466.367188 1000.507812 1456.089844 C 1006.203125 1451.226562 1009.976562 1446.707031 1011.195312 1443.273438 C 1012.230469 1440.34375 1012.015625 1436.601562 1010.351562 1432.21875 C 1008.289062 1426.796875 1003.9375 1420.121094 997.742188 1412.648438 Z M 1166.773438 1385.773438 C 1162.734375 1388.535156 1155.570312 1389.910156 1147.644531 1390.90625 C 1133.625 1392.671875 1117.273438 1392.824219 1108.921875 1394.335938 C 1061.011719 1403.007812 1023.4375 1406.839844 990.40625 1404.3125 C 965.292969 1377.230469 921.273438 1341.988281 880.542969 1314.78125 C 850.324219 1294.59375 821.878906 1278.851562 804.257812 1273.953125 C 799.273438 1272.570312 795.066406 1272.035156 791.820312 1272.359375 C 789.074219 1272.628906 786.894531 1273.507812 785.285156 1274.859375 C 780.574219 1278.808594 780.621094 1284.796875 784.265625 1291.480469 C 790.734375 1303.34375 808.941406 1318.03125 813.378906 1321.835938 C 865.488281 1366.484375 905.015625 1392.519531 948.820312 1404.332031 C 961.117188 1407.644531 973.757812 1409.839844 987.113281 1411.007812 C 988.996094 1413.085938 990.761719 1415.113281 992.390625 1417.082031 C 997.980469 1423.828125 1001.992188 1429.792969 1003.851562 1434.6875 C 1004.804688 1437.183594 1005.234375 1439.28125 1004.644531 1440.949219 C 1003.683594 1443.648438 1000.46875 1446.980469 995.992188 1450.800781 C 984.308594 1460.769531 964.050781 1472.921875 945.332031 1481.683594 C 934.734375 1486.644531 924.640625 1490.523438 916.886719 1492.242188 C 912.511719 1493.210938 909.03125 1493.617188 906.898438 1492.714844 C 885.367188 1483.605469 864.523438 1453.941406 847.492188 1425.625 C 835.285156 1405.328125 825.09375 1385.617188 818.152344 1374.050781 C 814.882812 1368.601562 812.183594 1364.863281 810.335938 1363.355469 C 791.320312 1347.855469 767.199219 1335.769531 741.570312 1332.09375 C 734.933594 1331.140625 726.710938 1330.722656 719.710938 1332.53125 C 714.53125 1333.871094 710.003906 1336.414062 706.960938 1340.59375 C 703.886719 1344.820312 702.921875 1349.742188 703.203125 1354.851562 C 703.570312 1361.609375 706.203125 1368.71875 708.140625 1374.519531 C 724.933594 1424.769531 767.0625 1456.554688 818.097656 1480.289062 C 823.800781 1482.941406 862.167969 1495.347656 881.464844 1503.992188 C 884.019531 1505.136719 886.222656 1506.207031 887.933594 1507.171875 C 858.03125 1518.480469 810.015625 1513.902344 779.421875 1512.476562 C 714.71875 1509.464844 674.082031 1499.648438 646.328125 1481.261719 C 628.8125 1469.65625 616.476562 1454.660156 606.441406 1435.933594 C 610.707031 1435.609375 614.53125 1435.007812 617.9375 1434.148438 C 629.621094 1431.195312 636.628906 1425.214844 639.695312 1417 C 642.074219 1410.613281 642.039062 1402.722656 639.5625 1393.542969 C 636.101562 1380.71875 627.832031 1365.164062 615.359375 1347.605469 C 598.402344 1323.730469 585.996094 1297.816406 577.339844 1270.8125 C 576.109375 1266.972656 569.527344 1225.125 560.019531 1206.875 C 556.957031 1200.992188 553.265625 1197.445312 549.753906 1196.789062 C 546.902344 1196.261719 543.792969 1197.160156 540.746094 1200.640625 C 535.210938 1206.960938 533.125 1215.546875 532.601562 1223.390625 C 532.429688 1225.976562 532.433594 1230.023438 532.578125 1232.589844 C 534.652344 1269.070312 553.15625 1303.730469 563.960938 1338.703125 C 575.125 1374.816406 584.050781 1404.769531 595.507812 1429.246094 C 589.195312 1429.082031 582.101562 1428.417969 574.203125 1427.234375 C 534.859375 1421.347656 494.644531 1412.296875 458.730469 1396.253906 C 413.226562 1375.929688 380.453125 1341.128906 368.046875 1297.4375 C 356.433594 1256.53125 358.632812 1228.386719 369.679688 1207.996094 C 380.6875 1187.683594 400.367188 1175.207031 423.117188 1165.328125 C 446.589844 1155.136719 473.332031 1147.753906 497.75 1138.003906 C 522.84375 1127.988281 545.484375 1115.449219 560.066406 1095.285156 C 572.539062 1078.035156 570.425781 1061.667969 563.410156 1046.378906 C 558.992188 1036.761719 552.582031 1027.589844 546.914062 1018.945312 C 539.242188 1007.246094 523.664062 995.878906 507.945312 984.902344 C 492.960938 974.429688 477.855469 964.3125 470.292969 954.289062 C 459.5625 940.070312 455.160156 922.285156 452.964844 905.660156 C 447.871094 867.054688 467.679688 838.964844 498.554688 819.84375 C 546.023438 790.453125 619.367188 782.011719 671.71875 789.589844 C 739.976562 799.464844 802.84375 839.03125 859.289062 872.722656 C 870.855469 879.621094 899.867188 894.480469 918.796875 908.234375 C 924.875 912.648438 929.910156 916.855469 932.738281 920.640625 C 924.855469 918.742188 916.644531 917.027344 908.253906 915.5 C 854.046875 905.609375 792.21875 903.492188 760.035156 910.996094 C 728.332031 918.382812 705.664062 937.039062 690.449219 962.128906 C 680.1875 979.058594 674.960938 991.667969 673.503906 1000.75 C 672.386719 1007.710938 673.429688 1012.859375 675.867188 1016.539062 C 679.859375 1022.558594 688.023438 1025.023438 698.972656 1024.191406 C 734.496094 1021.496094 801.929688 985.273438 822.757812 975.480469 C 845.410156 964.832031 869.09375 956.015625 892.929688 947.59375 C 896.777344 946.230469 920.019531 939.96875 932.183594 933.28125 C 934.628906 931.929688 936.664062 930.523438 938.144531 929.140625 C 960.484375 934.945312 979.65625 942.253906 992.046875 950.933594 C 1017.679688 968.894531 1035.222656 996.679688 1051.164062 1021.3125 C 1054.757812 1026.859375 1063.023438 1036.996094 1068.351562 1046.753906 C 1071.425781 1052.382812 1073.722656 1057.769531 1072.597656 1061.824219 C 1072.449219 1062.363281 1071.984375 1062.703125 1071.460938 1063.03125 C 1070.816406 1063.441406 1070.050781 1063.765625 1069.226562 1064.042969 C 1065.355469 1065.34375 1060.347656 1065.5625 1057.597656 1065.777344 C 1019.8125 1068.773438 974.09375 1061.34375 930.714844 1060.550781 C 886.199219 1059.742188 844.152344 1065.96875 814.949219 1096.179688 C 809.8125 1101.492188 802.855469 1109.539062 799.074219 1117.875 C 796.265625 1124.070312 795.21875 1130.433594 797.257812 1136.144531 C 800.625 1145.578125 810.609375 1150.261719 823.898438 1151.296875 C 851.566406 1153.453125 893.9375 1140.453125 907.089844 1136.210938 C 940.800781 1125.332031 972.285156 1106.980469 1007.167969 1099.21875 C 1039.003906 1092.136719 1059.101562 1093.980469 1072.246094 1102.75 C 1081.890625 1109.179688 1087.605469 1119.300781 1091.613281 1131.859375 C 1095.832031 1145.082031 1098.105469 1160.953125 1100.578125 1178.296875 C 1105.746094 1214.5625 1109.578125 1250.976562 1117.742188 1286.90625 C 1123.628906 1312.8125 1131.527344 1339.042969 1147.78125 1361.664062 C 1149.382812 1363.890625 1160.300781 1374.875 1165.164062 1382.546875 C 1165.855469 1383.632812 1166.46875 1385.027344 1166.773438 1385.773438 Z M 603.003906 1429.191406 C 591.011719 1404.535156 582.121094 1373.914062 570.605469 1336.648438 C 559.960938 1302.207031 541.558594 1268.125 539.519531 1232.199219 C 539.386719 1229.871094 539.378906 1226.199219 539.539062 1223.855469 C 539.964844 1217.453125 541.460938 1210.375 545.976562 1205.21875 C 546.757812 1204.324219 547.421875 1203.714844 548.167969 1203.613281 C 548.875 1203.519531 549.460938 1204.03125 550.117188 1204.652344 C 551.429688 1205.890625 552.652344 1207.773438 553.855469 1210.085938 C 563.195312 1228.011719 569.511719 1269.160156 570.722656 1272.9375 C 579.589844 1300.605469 592.316406 1327.164062 609.695312 1351.628906 C 621.578125 1368.359375 629.554688 1383.132812 632.851562 1395.355469 C 634.878906 1402.875 635.132812 1409.335938 633.179688 1414.570312 C 630.828125 1420.875 625.203125 1425.144531 616.234375 1427.40625 C 612.402344 1428.375 607.996094 1428.976562 603.003906 1429.191406 Z M 929.28125 926.949219 C 927.554688 927.925781 925.546875 928.894531 923.386719 929.839844 C 911.042969 935.269531 893.847656 939.898438 890.609375 941.039062 C 866.554688 949.539062 842.660156 958.441406 819.796875 969.191406 C 799.363281 978.800781 733.300781 1014.613281 698.445312 1017.261719 C 691.476562 1017.792969 685.882812 1017.128906 682.667969 1013.925781 C 679.535156 1010.816406 679.152344 1005.519531 681.3125 997.523438 C 683.488281 989.457031 688.335938 979.027344 696.394531 965.730469 C 710.65625 942.207031 731.890625 924.691406 761.613281 917.765625 C 793.183594 910.40625 853.828125 912.632812 907.007812 922.335938 C 914.621094 923.722656 922.078125 925.261719 929.28125 926.949219 Z M 979.800781 1403.261719 C 969.753906 1402.035156 960.089844 1400.167969 950.628906 1397.621094 C 907.667969 1386.035156 869 1360.34375 817.902344 1316.558594 C 813.726562 1312.980469 796.453125 1299.308594 790.367188 1288.152344 C 789.503906 1286.566406 788.878906 1285.058594 788.65625 1283.652344 C 788.441406 1282.300781 788.675781 1281.085938 789.75 1280.183594 C 790.65625 1279.425781 792.023438 1279.222656 793.714844 1279.214844 C 796.117188 1279.199219 799.03125 1279.714844 802.394531 1280.648438 C 819.570312 1285.425781 847.230469 1300.886719 876.683594 1320.5625 C 914.125 1345.570312 954.417969 1377.421875 979.800781 1403.261719 " fill-opacity="1" fill-rule="evenodd"/></g></g></g></svg>