<svg id="Layer_1" data-name="Layer 1" xmlns="http://www.w3.org/2000/svg" viewBox="0 0 483.28 483.28"><defs><style>.cls-1{fill:none;stroke:#f9bfc7;stroke-miterlimit:10;stroke-width:30px;}.cls-2{font-size:127.16px;font-family:Futura-Bold, Futura;font-weight:700;letter-spacing:-0.04em;}.cls-2,.cls-3{fill:#f9bfc7;}.cls-4{fill:#333132;}</style></defs><rect class="cls-1" x="15" y="15" width="453.28" height="453.28"/><text class="cls-2" transform="translate(126.94 275.35) scale(1.05 1)">IDR</text><path class="cls-3" d="M249.21,414.28,111.59,276.66C0,165,137.56,27.4,249.21,139.05,363.69,27.64,501.15,165.47,386.82,276.66Z" transform="translate(-8.36 -8.7)"/><path class="cls-4" d="M171.23,181.18v95.87H145.06V181.18Z" transform="translate(-8.36 -8.7)"/><path class="cls-4" d="M186.45,181.18h38.71a47.59,47.59,0,0,1,19.3,3.94,53,53,0,0,1,15.75,10.49,48.62,48.62,0,0,1,10.61,15.26,44.93,44.93,0,0,1,.07,36.37,48.45,48.45,0,0,1-10.55,15.32,51.77,51.77,0,0,1-15.75,10.55,47.9,47.9,0,0,1-19.43,3.94H186.45ZM212.62,256h6a33.87,33.87,0,0,0,12.15-2,26.06,26.06,0,0,0,9-5.59,23.73,23.73,0,0,0,5.61-8.46,28.94,28.94,0,0,0,1.94-10.74,28.12,28.12,0,0,0-2-10.68,24.29,24.29,0,0,0-5.67-8.52,26.08,26.08,0,0,0-9-5.6,33.71,33.71,0,0,0-12-2h-6Z" transform="translate(-8.36 -8.7)"/><path class="cls-4" d="M369.22,277.05H336.64l-25-36.87v36.87H285.51V181.18h40.72a41.67,41.67,0,0,1,14.68,2.35A28.64,28.64,0,0,1,351.26,190a27,27,0,0,1,6.14,9.41,31.41,31.41,0,0,1,2.07,11.45q0,10.94-5.54,17.73t-16.35,9.22Zm-57.54-53h4.94q7.74,0,11.88-3.05a11.37,11.37,0,0,0,0-17.55q-4.14-3-11.88-3.05h-4.94Z" transform="translate(-8.36 -8.7)"/></svg>