<svg id="Layer_1" data-name="Layer 1" xmlns="http://www.w3.org/2000/svg" viewBox="0 0 437.99 126.98"><defs><style>.cls-1{fill:#f9bfc7;}.cls-2{fill:#333132;}</style></defs><path class="cls-1" d="M154.05,205.21H71c-64.21,0-64.21-82.56,0-82.56,0-59.22,83-59.22,83,0Z" transform="translate(-22.88 -78.23)"/><path class="cls-2" d="M209.22,82V203.86H176V82Z" transform="translate(-22.88 -78.23)"/><path class="cls-2" d="M228.57,82h49.21a60.53,60.53,0,0,1,24.52,5,67,67,0,0,1,20,13.33,61.87,61.87,0,0,1,13.49,19.39,57.19,57.19,0,0,1,.08,46.23,61.42,61.42,0,0,1-13.4,19.47,66.13,66.13,0,0,1-20,13.42,60.87,60.87,0,0,1-24.68,5H228.57Zm33.25,95h7.64a43,43,0,0,0,15.44-2.59,33.13,33.13,0,0,0,11.46-7.11,30.31,30.31,0,0,0,7.12-10.75,36.79,36.79,0,0,0,2.46-13.65,35.86,35.86,0,0,0-2.54-13.58,31.21,31.21,0,0,0-7.21-10.83,33.43,33.43,0,0,0-11.46-7.11,42.68,42.68,0,0,0-15.27-2.58h-7.64Z" transform="translate(-22.88 -78.23)"/><path class="cls-2" d="M460.87,203.86H419.46L387.73,157v46.87H354.47V82h51.76a52.86,52.86,0,0,1,18.66,3,36.35,36.35,0,0,1,13.16,8.16,34.12,34.12,0,0,1,7.8,12,39.93,39.93,0,0,1,2.63,14.54q0,13.9-7,22.55t-20.79,11.72Zm-73.14-67.4H394q9.84,0,15.1-3.88t5.26-11.15q0-7.28-5.26-11.15T394,106.4h-6.28Z" transform="translate(-22.88 -78.23)"/></svg>