<svg id="Layer_1" data-name="Layer 1" xmlns="http://www.w3.org/2000/svg" viewBox="0 0 484.07 103.85"><defs><style>.cls-1{fill:#fff;stroke:#231f20;stroke-miterlimit:10;}.cls-2{fill:#f9bfc7;}.cls-3{fill:#333132;}</style></defs><path class="cls-1" d="M272.2,117.09" transform="translate(-7.83 -41.3)"/><path class="cls-2" d="M114.12,144.2H46.85c-52,0-52-66.9,0-66.9,0-48,67.27-48,67.27,0Z" transform="translate(-7.83 -41.3)"/><path class="cls-3" d="M137.21,53.23v42H125.75v-42Z" transform="translate(-7.83 -41.3)"/><path class="cls-3" d="M160.61,62.48V95.24H149.14V62.48h-9.41V53.23H170v9.25Z" transform="translate(-7.83 -41.3)"/><path class="cls-3" d="M177.69,53.23h10l-10.76,18.5h-6.79Z" transform="translate(-7.83 -41.3)"/><path class="cls-3" d="M217.05,64a14.53,14.53,0,0,0-3.74-2.15,10.49,10.49,0,0,0-3.63-.69,6.11,6.11,0,0,0-3.63,1,3.09,3.09,0,0,0-1.4,2.62,2.54,2.54,0,0,0,.7,1.84,6.13,6.13,0,0,0,1.84,1.25,16.83,16.83,0,0,0,2.58.92c.95.26,1.9.54,2.84.83q5.61,1.78,8.21,4.77a11.34,11.34,0,0,1,2.61,7.77A14.54,14.54,0,0,1,222.29,88,12.26,12.26,0,0,1,219,92.48a15.48,15.48,0,0,1-5.38,2.9,23.35,23.35,0,0,1-7.22,1,27.44,27.44,0,0,1-15.5-4.74l4.91-8.8a19.86,19.86,0,0,0,5.09,3.23,12.63,12.63,0,0,0,5,1.06A6.15,6.15,0,0,0,210,85.94a3.46,3.46,0,0,0-.14-5.71,9.43,9.43,0,0,0-2.14-1.09c-.88-.33-1.94-.71-3.19-1.11-1.48-.45-2.93-.94-4.35-1.48a13.78,13.78,0,0,1-3.81-2.15A10.09,10.09,0,0,1,193.68,71a11.43,11.43,0,0,1-1-5.15,14.26,14.26,0,0,1,1.08-5.65,12.65,12.65,0,0,1,3-4.35,13.72,13.72,0,0,1,4.8-2.81,18.93,18.93,0,0,1,6.35-1,28.85,28.85,0,0,1,6.84.86,30.9,30.9,0,0,1,6.84,2.53Z" transform="translate(-7.83 -41.3)"/><path class="cls-3" d="M245.36,53.23h17A20.84,20.84,0,0,1,270.77,55a23.06,23.06,0,0,1,6.91,4.6,21.24,21.24,0,0,1,4.65,6.68,19.8,19.8,0,0,1,0,15.94,21.51,21.51,0,0,1-4.62,6.71,22.87,22.87,0,0,1-6.91,4.62,21,21,0,0,1-8.51,1.73h-17ZM256.82,86h2.64a14.73,14.73,0,0,0,5.32-.89,11.44,11.44,0,0,0,4-2.45,10.32,10.32,0,0,0,2.45-3.71,13.22,13.22,0,0,0,0-9.38,10.81,10.81,0,0,0-2.49-3.73,11.52,11.52,0,0,0-3.95-2.46,14.76,14.76,0,0,0-5.26-.89h-2.64Z" transform="translate(-7.83 -41.3)"/><path class="cls-3" d="M313.85,62.48H300.22v7h12.87v9.25H300.22V86h13.63v9.25H288.76v-42h25.09Z" transform="translate(-7.83 -41.3)"/><path class="cls-3" d="M343.74,64A14.37,14.37,0,0,0,340,61.84a10.49,10.49,0,0,0-3.63-.69,6.05,6.05,0,0,0-3.62,1,3.08,3.08,0,0,0-1.41,2.62,2.59,2.59,0,0,0,.7,1.84,6.06,6.06,0,0,0,1.85,1.25,16.32,16.32,0,0,0,2.57.92c1,.26,1.9.54,2.84.83q5.61,1.78,8.21,4.77a11.34,11.34,0,0,1,2.61,7.77A14.54,14.54,0,0,1,349,88a12.26,12.26,0,0,1-3.34,4.48,15.48,15.48,0,0,1-5.38,2.9,23.31,23.31,0,0,1-7.22,1,27.44,27.44,0,0,1-15.5-4.74l4.91-8.8a19.86,19.86,0,0,0,5.09,3.23,12.67,12.67,0,0,0,5,1.06,6.15,6.15,0,0,0,4.18-1.22,3.46,3.46,0,0,0-.14-5.71,9.43,9.43,0,0,0-2.14-1.09c-.87-.33-1.94-.71-3.19-1.11-1.48-.45-2.93-.94-4.35-1.48a13.78,13.78,0,0,1-3.81-2.15A10.09,10.09,0,0,1,320.37,71a11.43,11.43,0,0,1-1-5.15,14.26,14.26,0,0,1,1.08-5.65,12.65,12.65,0,0,1,3-4.35,13.72,13.72,0,0,1,4.8-2.81,18.93,18.93,0,0,1,6.35-1,28.85,28.85,0,0,1,6.84.86,30.9,30.9,0,0,1,6.84,2.53Z" transform="translate(-7.83 -41.3)"/><path class="cls-3" d="M371.76,62.48V95.24H360.29V62.48h-9.41V53.23h30.3v9.25Z" transform="translate(-7.83 -41.3)"/><path class="cls-3" d="M395.16,53.23v42H383.69v-42Z" transform="translate(-7.83 -41.3)"/><path class="cls-3" d="M401.82,95.24v-42h11.47l21.17,25.69V53.23h11.41v42H434.46L413.29,69.56V95.24Z" transform="translate(-7.83 -41.3)"/><path class="cls-3" d="M463.18,75.07,447.09,53.23h13.69L469,64.71l8.13-11.48h13.69L474.64,75.07V95.24H463.18Z" transform="translate(-7.83 -41.3)"/><path class="cls-3" d="M162.42,144H148.15l-10.94-16.16V144H125.75V102h17.84a18.22,18.22,0,0,1,6.43,1,12.69,12.69,0,0,1,4.53,2.81,11.76,11.76,0,0,1,2.69,4.13,13.63,13.63,0,0,1,.91,5,11.88,11.88,0,0,1-2.43,7.77,12.29,12.29,0,0,1-7.16,4Zm-25.21-23.24h2.17a8.67,8.67,0,0,0,5.2-1.33,5,5,0,0,0,0-7.69,8.66,8.66,0,0,0-5.2-1.34h-2.17Z" transform="translate(-7.83 -41.3)"/><path class="cls-3" d="M191.49,111.23H177.86v7h12.87v9.25H177.86v7.24h13.63V144H166.4V102h25.09Z" transform="translate(-7.83 -41.3)"/><path class="cls-3" d="M230.68,116a12.88,12.88,0,0,0-14.59-3.73,11.62,11.62,0,0,0-3.78,2.42,11.09,11.09,0,0,0-2.48,3.65,11.37,11.37,0,0,0-.91,4.57,11.51,11.51,0,0,0,.91,4.62,11.19,11.19,0,0,0,2.51,3.68,11.79,11.79,0,0,0,3.78,2.45,12.21,12.21,0,0,0,4.67.89,13.52,13.52,0,0,0,9.89-4.46V143l-1.17.39a35.81,35.81,0,0,1-4.91,1.31,24.91,24.91,0,0,1-4.51.42,23.6,23.6,0,0,1-8.74-1.65,22.76,22.76,0,0,1-7.37-4.62,23,23,0,0,1-5.12-7.08,21.69,21.69,0,0,1,0-17.82,22.05,22.05,0,0,1,5.09-7,23.42,23.42,0,0,1,7.4-4.57,24.19,24.19,0,0,1,8.83-1.64,25.58,25.58,0,0,1,5.18.53,32.62,32.62,0,0,1,5.35,1.64Z" transform="translate(-7.83 -41.3)"/><path class="cls-3" d="M273.79,144H259.52l-10.94-16.16V144H237.11V102H255a18.28,18.28,0,0,1,6.44,1,12.69,12.69,0,0,1,4.53,2.81,11.76,11.76,0,0,1,2.69,4.13,13.84,13.84,0,0,1,.91,5,11.88,11.88,0,0,1-2.43,7.77,12.32,12.32,0,0,1-7.16,4Zm-25.21-23.24h2.16a8.7,8.7,0,0,0,5.21-1.33,5,5,0,0,0,0-7.69,8.7,8.7,0,0,0-5.21-1.34h-2.16Z" transform="translate(-7.83 -41.3)"/><path class="cls-3" d="M288.82,102v22.84c0,1.23.05,2.48.15,3.76a9.9,9.9,0,0,0,.87,3.48,5.93,5.93,0,0,0,2.31,2.54,8.52,8.52,0,0,0,4.45,1,8.35,8.35,0,0,0,4.42-1,6.19,6.19,0,0,0,2.31-2.54,9.7,9.7,0,0,0,.9-3.48c.1-1.28.15-2.53.15-3.76V102h11.41v24.35q0,9.8-4.71,14.31t-14.48,4.52q-9.77,0-14.51-4.52t-4.73-14.31V102Z" transform="translate(-7.83 -41.3)"/><path class="cls-3" d="M335.67,102v42H324.21V102Z" transform="translate(-7.83 -41.3)"/><path class="cls-3" d="M360.82,111.23V144H349.36V111.23h-9.42V102h30.3v9.25Z" transform="translate(-7.83 -41.3)"/><path class="cls-3" d="M386,102v42H374.51V102Z" transform="translate(-7.83 -41.3)"/><path class="cls-3" d="M394.4,144V102h11.46L427,127.66V102h11.41v42H427L405.86,118.3V144Z" transform="translate(-7.83 -41.3)"/><path class="cls-3" d="M469.15,120.48H491.9a58.84,58.84,0,0,1-.29,6.07,21.12,21.12,0,0,1-1.17,5.07,19.87,19.87,0,0,1-3.34,5.82,19.09,19.09,0,0,1-4.94,4.23,23.46,23.46,0,0,1-6.23,2.59,27.7,27.7,0,0,1-7.13.9,26.07,26.07,0,0,1-9.39-1.62,21.24,21.24,0,0,1-7.28-4.54,20.45,20.45,0,0,1-4.74-7,25,25,0,0,1,0-18,19.6,19.6,0,0,1,4.74-7,21.48,21.48,0,0,1,7.4-4.51,27.32,27.32,0,0,1,9.65-1.62,24.9,24.9,0,0,1,12.1,2.84,20.11,20.11,0,0,1,8.25,8.8l-10.88,4.29a10.57,10.57,0,0,0-3.95-4.95,10.19,10.19,0,0,0-5.52-1.51,11.6,11.6,0,0,0-4.68.92,10,10,0,0,0-3.6,2.62,12.58,12.58,0,0,0-2.34,4.09,15.85,15.85,0,0,0-.85,5.35,16.42,16.42,0,0,0,.73,5,11,11,0,0,0,2.2,3.95,9.86,9.86,0,0,0,3.62,2.6,12.86,12.86,0,0,0,5,.91,14.72,14.72,0,0,0,3.28-.36,8.86,8.86,0,0,0,2.84-1.17,6.66,6.66,0,0,0,2.07-2.09,7.9,7.9,0,0,0,1.11-3.12h-9.41Z" transform="translate(-7.83 -41.3)"/></svg>