<svg id="Layer_1" data-name="Layer 1" xmlns="http://www.w3.org/2000/svg" viewBox="0 0 475.44 102"><defs><style>.cls-1{fill:#f9bfc7;}.cls-2{fill:#333132;}</style></defs><path class="cls-1" d="M113.5,147.24H47.43c-51.1,0-51.1-65.7,0-65.7,0-47.14,66.07-47.14,66.07,0Z" transform="translate(-9.1 -46.19)"/><path class="cls-2" d="M136.18,57.91V99.16H124.92V57.91Z" transform="translate(-9.1 -46.19)"/><path class="cls-2" d="M159.16,67V99.16H147.9V67h-9.25V57.91h29.76V67Z" transform="translate(-9.1 -46.19)"/><path class="cls-2" d="M175.93,57.91h9.83L175.19,76.07h-6.67Z" transform="translate(-9.1 -46.19)"/><path class="cls-2" d="M214.6,68.47a14.33,14.33,0,0,0-3.68-2.11,10.09,10.09,0,0,0-3.56-.68,5.93,5.93,0,0,0-3.56,1,3,3,0,0,0-1.38,2.57,2.51,2.51,0,0,0,.69,1.81,6.12,6.12,0,0,0,1.81,1.23,14.79,14.79,0,0,0,2.52.9c.94.26,1.87.53,2.79.82q5.52,1.76,8.07,4.68a11.21,11.21,0,0,1,2.56,7.63,14.38,14.38,0,0,1-1.12,5.75,12,12,0,0,1-3.28,4.4,15.26,15.26,0,0,1-5.28,2.85,23.18,23.18,0,0,1-7.1,1,27,27,0,0,1-15.22-4.65L193.68,87a19.64,19.64,0,0,0,5,3.18,12.61,12.61,0,0,0,4.89,1,6,6,0,0,0,4.1-1.21,3.61,3.61,0,0,0,1-4.35,3.53,3.53,0,0,0-1.15-1.25,9.29,9.29,0,0,0-2.1-1.07c-.86-.33-1.9-.69-3.13-1.1-1.45-.43-2.88-.92-4.28-1.45a13.44,13.44,0,0,1-3.73-2.1,9.8,9.8,0,0,1-2.64-3.31,11.09,11.09,0,0,1-1-5.06,14,14,0,0,1,1.06-5.56,12.44,12.44,0,0,1,3-4.27,13.52,13.52,0,0,1,4.71-2.76,18.81,18.81,0,0,1,6.23-1,28.89,28.89,0,0,1,6.73.84,31.22,31.22,0,0,1,6.72,2.49Z" transform="translate(-9.1 -46.19)"/><path class="cls-1" d="M242.4,57.91h16.66a20.47,20.47,0,0,1,8.3,1.69,22.54,22.54,0,0,1,6.78,4.52,20.93,20.93,0,0,1,4.57,6.56,19.43,19.43,0,0,1,0,15.65,20.93,20.93,0,0,1-4.54,6.59,22.47,22.47,0,0,1-6.78,4.54,20.49,20.49,0,0,1-8.36,1.7H242.4Zm11.26,32.17h2.59a14.43,14.43,0,0,0,5.22-.88,11.18,11.18,0,0,0,3.88-2.4,10.34,10.34,0,0,0,2.41-3.64,12.42,12.42,0,0,0,.84-4.63,12.21,12.21,0,0,0-.86-4.59,10.47,10.47,0,0,0-2.45-3.67,11.3,11.3,0,0,0-3.87-2.41,14.56,14.56,0,0,0-5.17-.87h-2.59Z" transform="translate(-9.1 -46.19)"/><path class="cls-1" d="M309.67,67H296.29v6.89h12.63V83H296.29v7.11h13.38v9.08H285V57.91h24.64Z" transform="translate(-9.1 -46.19)"/><path class="cls-1" d="M339,68.47a14.16,14.16,0,0,0-3.68-2.11,10.09,10.09,0,0,0-3.56-.68,6,6,0,0,0-3.56,1,3,3,0,0,0-1.38,2.57,2.51,2.51,0,0,0,.69,1.81,6.12,6.12,0,0,0,1.81,1.23,14.91,14.91,0,0,0,2.53.9c.93.26,1.86.53,2.78.82q5.52,1.76,8.07,4.68a11.16,11.16,0,0,1,2.56,7.63,14.21,14.21,0,0,1-1.12,5.75,12,12,0,0,1-3.28,4.4,15.17,15.17,0,0,1-5.28,2.85,23.18,23.18,0,0,1-7.1,1,27,27,0,0,1-15.22-4.65L318.12,87a19.42,19.42,0,0,0,5,3.18,12.61,12.61,0,0,0,4.89,1A6,6,0,0,0,332.1,90a3.61,3.61,0,0,0,1-4.35A3.53,3.53,0,0,0,332,84.42a9.08,9.08,0,0,0-2.1-1.07c-.86-.33-1.9-.69-3.13-1.1-1.45-.43-2.88-.92-4.28-1.45a13.44,13.44,0,0,1-3.73-2.1,9.92,9.92,0,0,1-2.64-3.31,11.22,11.22,0,0,1-1-5.06,14,14,0,0,1,1.06-5.56,12.44,12.44,0,0,1,3-4.27,13.52,13.52,0,0,1,4.71-2.76,18.83,18.83,0,0,1,6.24-1,28.87,28.87,0,0,1,6.72.84,31.22,31.22,0,0,1,6.72,2.49Z" transform="translate(-9.1 -46.19)"/><path class="cls-1" d="M366.54,67V99.16H355.28V67H346V57.91h29.75V67Z" transform="translate(-9.1 -46.19)"/><path class="cls-1" d="M389.52,57.91V99.16H378.26V57.91Z" transform="translate(-9.1 -46.19)"/><path class="cls-1" d="M396.07,99.16V57.91h11.26l20.8,25.22V57.91h11.2V99.16h-11.2l-20.8-25.22V99.16Z" transform="translate(-9.1 -46.19)"/><path class="cls-1" d="M456.33,79.35,440.54,57.91H454l8,11.27,8-11.27h13.44L467.59,79.35V99.16H456.33Z" transform="translate(-9.1 -46.19)"/><path class="cls-2" d="M160.94,147h-14l-10.74-15.87V147H124.92V105.78h17.52a18.06,18.06,0,0,1,6.32,1,12.27,12.27,0,0,1,4.45,2.77,11.53,11.53,0,0,1,2.65,4,13.56,13.56,0,0,1,.89,4.92,11.69,11.69,0,0,1-2.39,7.63,12.06,12.06,0,0,1-7,4Zm-24.76-22.82h2.13a8.55,8.55,0,0,0,5.11-1.31,4.89,4.89,0,0,0,0-7.55,8.48,8.48,0,0,0-5.11-1.32h-2.13Z" transform="translate(-9.1 -46.19)"/><path class="cls-2" d="M189.49,114.86H176.11v6.9h12.64v9.08H176.11V138h13.38V147H164.85V105.78h24.64Z" transform="translate(-9.1 -46.19)"/><path class="cls-2" d="M228,119.57a12.22,12.22,0,0,0-9.65-4.54,12.37,12.37,0,0,0-4.68.87,11.64,11.64,0,0,0-3.71,2.38,11.14,11.14,0,0,0-2.44,3.59,11.3,11.3,0,0,0-.89,4.48,11.5,11.5,0,0,0,.89,4.55,11.21,11.21,0,0,0,2.47,3.61,11.71,11.71,0,0,0,3.71,2.41,12,12,0,0,0,4.59.87,13.31,13.31,0,0,0,9.71-4.38v12.7l-1.15.38a36,36,0,0,1-4.82,1.29,24.93,24.93,0,0,1-4.43.41,23.15,23.15,0,0,1-8.58-1.62,22.42,22.42,0,0,1-12.27-11.49,21.27,21.27,0,0,1,0-17.51,21.9,21.9,0,0,1,5-6.84,23,23,0,0,1,7.27-4.48,23.54,23.54,0,0,1,8.67-1.62,25.48,25.48,0,0,1,5.09.52,32.47,32.47,0,0,1,5.25,1.62Z" transform="translate(-9.1 -46.19)"/><path class="cls-2" d="M270.32,147h-14l-10.74-15.87V147H234.3V105.78h17.52a18.06,18.06,0,0,1,6.32,1,12.27,12.27,0,0,1,4.45,2.77,11.53,11.53,0,0,1,2.65,4,13.56,13.56,0,0,1,.89,4.92,11.69,11.69,0,0,1-2.39,7.63,12.06,12.06,0,0,1-7,4Zm-24.76-22.82h2.13a8.55,8.55,0,0,0,5.11-1.31,4.89,4.89,0,0,0,0-7.55,8.48,8.48,0,0,0-5.11-1.32h-2.13Z" transform="translate(-9.1 -46.19)"/><path class="cls-2" d="M285.08,105.78v22.43c0,1.21.05,2.44.15,3.7a9.57,9.57,0,0,0,.86,3.42,5.83,5.83,0,0,0,2.27,2.49,8.31,8.31,0,0,0,4.37,1,8.13,8.13,0,0,0,4.33-1,6,6,0,0,0,2.27-2.49,9.18,9.18,0,0,0,.89-3.42c.1-1.26.15-2.49.15-3.7V105.78h11.2v23.91q0,9.63-4.63,14.06t-14.21,4.44q-9.6,0-14.25-4.44t-4.65-14.06V105.78Z" transform="translate(-9.1 -46.19)"/><path class="cls-2" d="M331.1,105.78V147H319.84V105.78Z" transform="translate(-9.1 -46.19)"/><path class="cls-2" d="M355.8,114.86V147H344.54V114.86h-9.25v-9.08h29.76v9.08Z" transform="translate(-9.1 -46.19)"/><path class="cls-2" d="M380.5,105.78V147H369.25V105.78Z" transform="translate(-9.1 -46.19)"/><path class="cls-2" d="M388.78,147V105.78H400L420.83,131V105.78H432V147H420.83L400,121.81V147Z" transform="translate(-9.1 -46.19)"/><path class="cls-2" d="M462.19,124h22.35a54.06,54.06,0,0,1-.29,6,20.37,20.37,0,0,1-1.14,5,19.76,19.76,0,0,1-3.28,5.72,19.15,19.15,0,0,1-4.85,4.16,23.44,23.44,0,0,1-6.12,2.54,27.65,27.65,0,0,1-7,.88,25.68,25.68,0,0,1-9.22-1.59,21,21,0,0,1-7.15-4.46,20,20,0,0,1-4.66-6.89,24.71,24.71,0,0,1,0-17.73,19.51,19.51,0,0,1,4.66-6.87,21.28,21.28,0,0,1,7.26-4.43,26.94,26.94,0,0,1,9.48-1.59,24.47,24.47,0,0,1,11.9,2.79,19.81,19.81,0,0,1,8.1,8.65l-10.69,4.21a10.49,10.49,0,0,0-3.88-4.87,10.14,10.14,0,0,0-5.43-1.48,11.4,11.4,0,0,0-4.59.91,9.85,9.85,0,0,0-3.53,2.57,12,12,0,0,0-2.3,4,15.54,15.54,0,0,0-.84,5.25,15.84,15.84,0,0,0,.72,4.87,10.86,10.86,0,0,0,2.16,3.89,9.61,9.61,0,0,0,3.56,2.54,12.59,12.59,0,0,0,4.94.9,14.25,14.25,0,0,0,3.22-.35,8.72,8.72,0,0,0,2.78-1.15,6.65,6.65,0,0,0,2-2,7.86,7.86,0,0,0,1.09-3.07h-9.25Z" transform="translate(-9.1 -46.19)"/></svg>