<svg xmlns="http://www.w3.org/2000/svg" xmlns:xlink="http://www.w3.org/1999/xlink" width="1728" zoomAndPan="magnify" viewBox="0 0 1296 1727.999927" height="2304" preserveAspectRatio="xMidYMid meet" version="1.0"><defs><clipPath id="id1"><path d="M 0 1087 L 1221.472656 1087 L 1221.472656 1728 L 0 1728 Z M 0 1087 " clip-rule="nonzero"/></clipPath></defs><g clip-path="url(#id1)"><path fill="rgb(100%, 87.059021%, 87.059021%)" d="M 431.089844 1119.566406 C 416.898438 1121.539062 375.898438 1204.324219 368.800781 1204.324219 C 361.703125 1204.324219 315.972656 1241.382812 299.414062 1250.453125 C 282.859375 1259.519531 156.308594 1308.007812 109 1370.296875 C 61.695312 1432.980469 -62.09375 1893.445312 -62.09375 1893.445312 C -8.480469 1959.675781 168.925781 1972.683594 168.925781 1972.683594 L 171.289062 2013.6875 C 157.097656 2050.742188 151.972656 2185.964844 151.972656 2185.964844 C 151.972656 2185.964844 42.375 2273.878906 21.875 2344.050781 C 21.875 2344.050781 106.242188 2462.714844 176.414062 2498.59375 C 246.589844 2534.46875 343.570312 2551.023438 343.570312 2551.023438 C 381.808594 2455.226562 411.378906 2131.167969 411.378906 2131.167969 C 411.378906 2131.167969 466.175781 2053.503906 521.367188 2041.675781 C 576.5625 2029.847656 642.398438 2127.226562 642.398438 2127.226562 C 646.339844 2202.523438 710.207031 2525.398438 710.207031 2525.398438 C 710.207031 2525.398438 765.003906 2525.398438 833.996094 2502.535156 C 902.984375 2479.667969 946.351562 2341.292969 946.351562 2341.292969 C 946.351562 2341.292969 936.101562 2285.3125 914.023438 2243.128906 C 891.945312 2200.945312 867.109375 2204.886719 867.109375 2204.886719 C 867.109375 2204.886719 867.109375 2204.886719 893.917969 2119.339844 C 920.726562 2033.792969 914.023438 1874.519531 914.023438 1874.519531 C 922.695312 1892.261719 941.226562 1930.503906 941.226562 1930.503906 C 1068.957031 1934.445312 1221.128906 1834.703125 1221.128906 1822.089844 C 1221.128906 1809.078125 1036.628906 1330.480469 994.839844 1288.691406 C 953.050781 1246.902344 806.003906 1211.027344 806.003906 1211.027344 C 770.128906 1181.855469 718.089844 1171.605469 718.089844 1171.605469 C 718.089844 1171.605469 678.667969 1132.179688 656.984375 1116.804688 C 635.300781 1101.429688 607.3125 1087.632812 607.3125 1087.632812 C 607.3125 1087.632812 445.28125 1117.59375 431.089844 1119.566406 Z M 431.089844 1119.566406 " fill-opacity="1" fill-rule="nonzero"/></g><path fill="rgb(61.569214%, 41.958618%, 41.958618%)" d="M 346.722656 739.132812 C 331.742188 748.199219 304.148438 739.132812 304.148438 739.132812 C 304.148438 739.132812 352.242188 783.679688 389.300781 768.304688 L 408.222656 795.902344 L 395.609375 795.507812 C 395.609375 795.507812 344.359375 830.199219 340.023438 841.238281 C 340.023438 841.238281 339.234375 850.699219 339.234375 851.882812 C 339.234375 853.066406 424.78125 877.902344 424.78125 877.902344 L 450.800781 857.796875 L 601.398438 1078.171875 C 601.398438 1078.171875 671.175781 1069.894531 676.695312 1064.375 C 682.214844 1058.855469 694.832031 1041.507812 692.464844 1002.875 C 692.464844 1002.875 700.742188 1028.5 721.636719 1037.566406 C 714.148438 1025.738281 708.628906 969.757812 708.628906 969.757812 C 708.628906 969.757812 712.175781 976.066406 723.214844 993.410156 C 716.90625 976.066406 743.320312 946.496094 730.707031 897.21875 C 730.707031 897.21875 738.195312 911.015625 765.398438 931.121094 C 765.398438 931.121094 748.050781 909.046875 740.5625 845.96875 C 743.320312 866.863281 760.667969 868.046875 760.667969 868.046875 C 749.628906 857.007812 768.15625 812.066406 740.5625 771.851562 C 740.5625 771.851562 759.878906 767.910156 765.398438 782.890625 C 765.398438 782.890625 759.089844 753.71875 737.800781 747.015625 C 764.214844 741.496094 765.398438 699.3125 765.398438 699.3125 C 765.398438 699.3125 747.261719 716.660156 716.90625 724.9375 C 747.261719 716.660156 754.359375 675.265625 754.359375 675.265625 C 754.359375 675.265625 707.445312 673.292969 671.964844 652.398438 C 636.089844 631.507812 600.609375 626.773438 600.609375 626.773438 C 617.957031 622.042969 625.445312 613.765625 625.445312 613.765625 C 602.582031 621.257812 528.464844 600.757812 483.523438 597.996094 C 438.578125 595.238281 379.839844 631.898438 379.839844 631.898438 C 387.328125 618.890625 400.734375 612.582031 400.734375 612.582031 C 349.484375 629.929688 344.753906 665.804688 344.753906 665.804688 C 344.753906 665.804688 334.503906 644.121094 344.753906 629.140625 C 299.808594 685.910156 355.792969 706.015625 355.792969 706.015625 C 327.40625 709.5625 299.808594 690.246094 299.808594 690.246094 C 300.597656 719.8125 346.722656 739.132812 346.722656 739.132812 Z M 580.109375 1604.867188 C 619.53125 1874.128906 645.15625 2090.957031 642.792969 2126.832031 C 642.792969 2126.832031 501.261719 2141.023438 411.773438 2130.773438 C 406.648438 1961.253906 466.570312 1611.566406 466.570312 1611.566406 Z M 960.148438 1486.203125 C 960.148438 1486.203125 940.832031 1608.808594 936.890625 1657.300781 C 952.265625 1667.550781 972.765625 1645.867188 972.765625 1645.867188 C 972.765625 1645.867188 947.140625 1709.730469 934.523438 1745.214844 C 921.910156 1781.089844 913.628906 1874.128906 913.628906 1874.128906 C 914.023438 1851.261719 920.332031 1640.742188 924.273438 1604.867188 C 928.214844 1569.386719 960.148438 1486.203125 960.148438 1486.203125 Z M 125.953125 1548.097656 C 122.40625 1540.605469 119.25 1533.117188 118.070312 1527.203125 C 118.070312 1527.203125 121.617188 1535.480469 125.953125 1548.097656 Z M 138.570312 1604.867188 C 136.203125 1583.183594 130.683594 1562.683594 125.953125 1548.097656 C 136.597656 1570.566406 153.945312 1594.617188 153.945312 1594.617188 C 153.945312 1594.617188 155.519531 1928.925781 169.320312 1972.292969 C 129.5 1866.636719 139.75 1617.875 138.570312 1604.867188 Z M 610.464844 1289.875 C 604.15625 1279.625 588.78125 1282.382812 588.78125 1282.382812 L 615.589844 1270.953125 C 665.261719 1336 716.511719 1326.933594 729.128906 1343.488281 C 674.332031 1345.855469 617.167969 1300.125 610.464844 1289.875 Z M 435.820312 1307.222656 C 455.136719 1286.328125 467.753906 1306.433594 474.0625 1315.5 C 452.773438 1305.644531 437.003906 1321.808594 414.136719 1343.488281 C 390.878906 1365.171875 354.214844 1371.480469 354.214844 1371.480469 C 354.214844 1371.480469 416.503906 1328.113281 435.820312 1307.222656 Z M 435.820312 1307.222656 " fill-opacity="1" fill-rule="nonzero"/><path fill="rgb(68.629456%, 50.588989%, 40.388489%)" d="M 386.542969 1119.566406 C 393.636719 1119.171875 412.953125 1191.316406 412.953125 1191.316406 C 415.714844 1232.710938 435.425781 1276.078125 455.925781 1280.019531 C 476.425781 1283.960938 499.292969 1319.441406 494.5625 1332.453125 C 489.828125 1345.066406 466.175781 1611.960938 466.175781 1611.960938 C 534.773438 1641.136719 579.714844 1605.65625 579.714844 1605.65625 C 579.714844 1605.65625 551.722656 1339.152344 552.90625 1314.710938 C 554.089844 1290.664062 554.089844 1294.210938 580.898438 1270.164062 C 607.707031 1246.113281 655.011719 1203.933594 656.195312 1155.835938 C 656.195312 1155.835938 639.636719 1132.179688 635.695312 1094.335938 C 635.695312 1094.335938 630.964844 1012.730469 642.003906 979.613281 " fill-opacity="1" fill-rule="nonzero"/><path fill="rgb(76.469421%, 58.428955%, 50.588989%)" d="M 338.839844 852.277344 C 358.945312 851.09375 368.800781 841.238281 368.800781 841.238281 C 359.734375 839.265625 348.695312 840.054688 339.628906 841.632812 C 343.175781 817.976562 356.972656 762.390625 356.972656 762.390625 C 376.292969 735.976562 444.886719 725.726562 444.886719 725.726562 C 489.042969 751.351562 532.800781 718.238281 563.945312 742.285156 C 535.5625 812.851562 540.292969 868.835938 587.597656 915.355469 C 569.464844 895.246094 568.28125 848.332031 568.28125 848.332031 C 587.597656 915.355469 649.886719 935.460938 649.886719 935.460938 C 630.570312 925.210938 625.050781 895.246094 625.050781 895.246094 C 650.675781 918.902344 684.582031 909.046875 684.582031 909.046875 C 684.582031 909.046875 682.609375 963.84375 659.742188 988.679688 C 636.878906 1013.515625 602.972656 1003.265625 602.972656 1003.265625 C 602.972656 1003.265625 569.070312 1078.566406 548.175781 1093.152344 C 527.28125 1107.738281 381.808594 1131.394531 367.617188 1119.566406 C 337.65625 1093.941406 349.089844 1071.074219 348.300781 1061.21875 C 347.511719 1050.96875 324.648438 972.121094 330.167969 940.191406 C 335.683594 908.257812 348.300781 886.96875 348.300781 886.96875 C 340.023438 881.449219 338.839844 852.277344 338.839844 852.277344 Z M 457.503906 846.363281 C 479.578125 845.179688 493.378906 857.796875 494.5625 858.191406 C 461.445312 812.457031 402.703125 838.476562 402.703125 838.476562 C 412.953125 851.488281 435.820312 847.941406 457.503906 846.363281 Z M 457.503906 846.363281 " fill-opacity="1" fill-rule="nonzero"/><path fill="rgb(0.779724%, 0.779724%, 0.779724%)" d="M 422.417969 1022.980469 C 414.136719 1018.25 382.203125 987.890625 358.550781 1000.113281 C 358.550781 1000.113281 353.820312 996.960938 349.089844 996.960938 C 343.964844 996.960938 342.78125 1010.757812 349.089844 1016.277344 C 340.023438 1024.949219 346.328125 1035.988281 351.058594 1040.71875 C 355.792969 1045.449219 374.714844 1047.421875 386.933594 1045.449219 C 404.675781 1042.691406 422.417969 1022.980469 422.417969 1022.980469 Z M 422.417969 1022.980469 " fill-opacity="1" fill-rule="nonzero"/></svg>