<svg xmlns="http://www.w3.org/2000/svg" xmlns:xlink="http://www.w3.org/1999/xlink" width="1728" zoomAndPan="magnify" viewBox="0 0 1296 1727.999927" height="2304" preserveAspectRatio="xMidYMid meet" version="1.0"><defs><clipPath id="id1"><path d="M 1.171875 965 L 1047.40625 965 L 1047.40625 1728 L 1.171875 1728 Z M 1.171875 965 " clip-rule="nonzero"/></clipPath><clipPath id="id2"><path d="M 183.246094 1197 L 1024 1197 L 1024 1728 L 183.246094 1728 Z M 183.246094 1197 " clip-rule="nonzero"/></clipPath></defs><path fill="rgb(100%, 87.059021%, 87.059021%)" d="M 778.464844 921.3125 C 778.910156 920.304688 779.253906 919.296875 779.570312 918.269531 C 779.570312 918.28125 779.570312 918.28125 779.570312 918.28125 C 779.601562 919.414062 779.414062 920.71875 778.464844 921.3125 Z M 825.167969 659.363281 C 825.296875 659.3125 825.414062 659.253906 825.535156 659.183594 C 825.542969 659.234375 825.542969 659.28125 825.554688 659.332031 C 825.425781 659.34375 825.296875 659.34375 825.167969 659.363281 Z M 341.539062 944.714844 C 340.402344 944.605469 339.257812 944.835938 338.113281 944.902344 C 333.546875 945.210938 328.976562 943.058594 325.960938 939.609375 C 322.949219 936.175781 321.417969 931.5625 321.300781 926.988281 C 323.15625 931.257812 328.027344 934.5625 332.679688 934.8125 C 334.050781 937.785156 337.855469 938.96875 341.027344 938.148438 C 341.804688 941.132812 345.027344 945.714844 347.40625 947.679688 C 345.648438 946.324219 343.753906 944.921875 341.539062 944.714844 Z M 234.847656 631.542969 C 232.675781 634.871094 228.761719 636.53125 225.472656 638.792969 C 220.820312 642 217.097656 646.660156 215.230469 651.996094 C 216.640625 647.234375 216.34375 641.84375 219.089844 637.707031 C 221.085938 634.691406 224.367188 632.855469 227.269531 630.714844 C 230.183594 628.582031 232.980469 625.675781 233.179688 622.074219 C 233.316406 619.398438 231.992188 616.898438 231.25 614.320312 C 230.085938 610.222656 230.453125 605.699219 232.257812 601.839844 C 233.257812 606.578125 234.648438 611.890625 235.648438 616.632812 C 236.703125 621.636719 237.652344 627.257812 234.847656 631.542969 Z M 198.675781 787.148438 C 197.855469 785.515625 197.191406 783.738281 197.339844 781.921875 C 197.480469 780.105469 198.585938 778.269531 200.332031 777.753906 C 200.273438 779.800781 201.609375 781.558594 202.902344 783.128906 C 207.890625 789.152344 212.433594 794.9375 217.421875 800.960938 C 209.480469 799.621094 202.308594 794.328125 198.675781 787.148438 Z M 890.382812 732.675781 C 887.914062 728.289062 882.492188 725.753906 881.207031 720.882812 C 879.902344 715.945312 883.5 710.585938 881.859375 705.734375 C 880.484375 701.695312 875.960938 699.523438 874.066406 695.703125 C 872.722656 692.996094 872.671875 689.480469 870.300781 687.605469 C 868.847656 686.460938 866.902344 686.261719 865.105469 685.828125 C 859.859375 684.554688 855.296875 680.75 853.105469 675.832031 C 852.054688 673.492188 851.511719 670.914062 850.160156 668.742188 C 848.796875 666.5625 846.238281 664.8125 843.769531 665.484375 C 842.394531 665.851562 841.210938 666.917969 839.796875 666.894531 C 838.710938 666.875 837.863281 666.265625 837.101562 665.464844 C 833.722656 658.253906 832.28125 650.039062 832.675781 642.140625 C 830.066406 645.101562 827.371094 648.292969 826.039062 651.925781 C 825.898438 651.183594 825.761719 650.503906 825.691406 649.941406 C 825.316406 647.125 824.210938 644.292969 824.871094 641.527344 C 825.238281 640.027344 826.097656 638.703125 826.699219 637.28125 C 829.160156 631.5625 826.976562 624.246094 821.800781 620.800781 C 818.265625 618.449219 813.808594 617.886719 810.105469 615.800781 C 802.726562 611.664062 799.03125 602.007812 790.910156 599.625 C 788.945312 599.054688 786.792969 598.933594 785.082031 597.808594 C 783.917969 597.039062 783.078125 595.863281 782.269531 594.71875 C 778.839844 589.898438 773.664062 584.515625 768.042969 586.355469 C 765.96875 580.765625 764.230469 573.199219 758.648438 571.105469 C 753.453125 569.152344 747.636719 571.550781 742.125 570.96875 C 737.621094 570.496094 732.542969 568.203125 728.976562 570.988281 C 727.308594 572.292969 726.070312 574.660156 723.949219 574.574219 C 723.109375 574.535156 722.339844 574.078125 721.5 573.960938 C 720.660156 573.84375 719.601562 574.304688 719.621094 575.15625 C 715.046875 571.964844 710.414062 565.191406 705.21875 563.167969 C 700.429688 561.289062 695.242188 564.085938 690.421875 565.863281 C 685.59375 567.652344 678.804688 567.652344 676.808594 562.910156 C 675.4375 559.652344 676.808594 554.941406 673.789062 553.105469 C 672.296875 552.195312 670.410156 552.53125 668.710938 552.886719 C 664.105469 553.863281 659.523438 554.84375 654.921875 555.820312 C 649.390625 556.996094 642.464844 559.898438 642.890625 565.539062 C 638.511719 564.113281 633.4375 565.054688 629.859375 567.945312 C 626.707031 570.496094 623.46875 574.75 619.675781 573.308594 C 617.9375 572.648438 616.878906 570.929688 615.566406 569.605469 C 612.554688 566.5625 607.683594 565.546875 603.710938 567.128906 C 599.730469 568.695312 596.886719 572.785156 596.777344 577.0625 C 596.730469 579.410156 597.421875 581.742188 597.382812 584.101562 C 597.292969 588.4375 594.742188 592.269531 592.808594 596.148438 C 590.863281 600.03125 589.527344 604.851562 591.769531 608.5625 C 592.550781 609.855469 593.734375 610.945312 594.191406 612.386719 C 595.722656 617.304688 588.410156 620.335938 586.78125 625.214844 C 589.417969 626.308594 591.050781 629.421875 590.4375 632.214844 C 590.148438 633.546875 589.449219 634.761719 589.101562 636.074219 C 585.824219 630.8125 583.167969 624.738281 581.269531 620.316406 C 580.320312 618.101562 579.253906 616.808594 579.589844 614.4375 C 578.128906 624.691406 583.769531 634.722656 590.910156 642.226562 C 592.097656 643.480469 593.5 644.726562 595.039062 645.457031 C 581.65625 644.28125 565.355469 644.539062 552.296875 646.839844 C 548.414062 647.53125 544.324219 648.488281 541.570312 651.304688 C 539.988281 648.410156 540.40625 645.507812 539.652344 642.296875 C 538.636719 637.921875 532.769531 636.90625 529.875 633.457031 C 529.300781 632.777344 528.867188 632.015625 528.519531 631.21875 C 532.769531 631.613281 536.820312 632.253906 541.453125 632.175781 C 536.808594 629.390625 531.988281 626.574219 526.960938 624.601562 C 526.625 622.773438 526.191406 620.964844 525.28125 619.386719 C 522.878906 615.238281 517.824219 613.582031 513.21875 612.265625 C 511.847656 611.871094 510.472656 611.476562 509.101562 611.089844 C 502.570312 609.214844 496.042969 607.347656 489.503906 605.480469 C 492.378906 597.75 488.839844 587.707031 482.589844 582.335938 C 481.117188 581.070312 479.40625 579.945312 478.539062 578.21875 C 477.726562 576.597656 477.777344 574.722656 477.628906 572.921875 C 476.660156 561.164062 466.921875 552.3125 457.875 544.738281 C 456.609375 543.683594 455.265625 542.585938 453.65625 542.269531 C 452.144531 541.976562 450.503906 542.398438 449.0625 541.855469 C 447.066406 541.105469 446.148438 538.882812 444.753906 537.265625 C 441.25 533.175781 434.609375 533.324219 429.871094 535.890625 C 425.128906 538.449219 421.699219 542.835938 417.957031 546.714844 C 414.210938 550.585938 409.628906 554.230469 404.253906 554.554688 C 403.089844 554.636719 401.863281 554.554688 400.816406 555.070312 C 398.753906 556.078125 398.328125 558.773438 398.171875 561.0625 C 393.667969 553.164062 381.714844 547.484375 372.773438 549.175781 C 370.058594 549.6875 367.261719 550.703125 364.605469 549.925781 C 362.945312 549.429688 361.574219 548.285156 360.089844 547.386719 C 352.574219 542.84375 341.558594 545.667969 337.171875 553.28125 C 336.402344 554.625 335.730469 556.164062 334.386719 556.945312 C 332.375 558.101562 329.894531 557.0625 327.601562 556.707031 C 318.621094 555.328125 311.390625 564.945312 302.332031 565.644531 C 299.902344 565.832031 297.453125 565.359375 295.015625 565.515625 C 289.304688 565.914062 284.316406 569.851562 281.203125 574.660156 C 278.09375 579.460938 276.542969 585.089844 275.039062 590.609375 C 271.476562 588.65625 264.640625 589.917969 261.261719 592.179688 C 260.035156 593 259 594.046875 257.902344 595.023438 C 257.882812 595.042969 257.863281 595.054688 257.851562 595.074219 C 253.929688 590.835938 250.789062 585.96875 248.449219 580.5 C 248.597656 586.9375 249.632812 593.347656 251.511719 599.507812 C 249.992188 600.347656 248.429688 601.109375 246.800781 601.710938 C 244.378906 595.378906 238.039062 590.738281 231.261719 590.355469 C 229.917969 590.273438 228.546875 590.363281 227.28125 590.828125 C 224.839844 591.726562 223.082031 593.976562 222.164062 596.417969 C 221.246094 598.855469 221.046875 601.492188 220.851562 604.089844 C 220.75 605.503906 220.652344 606.972656 221.265625 608.246094 C 221.859375 609.511719 223.042969 610.359375 224 611.378906 C 226.015625 613.53125 227.035156 616.59375 226.707031 619.535156 C 226.570312 620.738281 226.726562 622.558594 227.941406 622.429688 C 222.863281 624.433594 216.789062 632.3125 215.308594 637.566406 C 214.546875 640.261719 214.410156 643.167969 213.117188 645.644531 C 211.347656 649.011719 207.761719 651.015625 205.46875 654.058594 C 199.710938 661.691406 203.535156 673.394531 198.457031 681.492188 C 195.699219 685.886719 190.277344 690.203125 192.34375 694.960938 C 193.371094 697.3125 196.066406 698.714844 196.808594 701.171875 C 198.230469 705.894531 191.769531 709.390625 190.949219 714.257812 C 190.1875 718.800781 194.574219 722.878906 194.277344 727.480469 C 194.140625 729.761719 192.867188 731.785156 191.898438 733.859375 C 186.386719 745.671875 190.730469 759.507812 195.117188 771.769531 C 191.976562 773.65625 188.589844 780.402344 189.429688 783.96875 C 190.269531 787.523438 192.617188 790.515625 195.078125 793.230469 C 198.328125 796.796875 201.875 800.09375 205.667969 803.074219 C 208.078125 804.972656 210.664062 806.820312 212.195312 809.484375 C 214.488281 813.464844 213.957031 818.402344 214.84375 822.90625 C 215.742188 827.417969 218.164062 831.625 221.640625 834.65625 C 222.539062 835.445312 223.507812 836.175781 224.347656 837.027344 C 223.28125 844.421875 224.445312 852.144531 227.714844 858.871094 C 229.503906 862.542969 232.378906 866.226562 236.429688 866.742188 C 234.886719 865.84375 232.347656 863.039062 232.179688 861.269531 C 231.796875 857.28125 231.410156 853.292969 231.023438 849.300781 C 234.582031 854.476562 239.609375 858.652344 245.398438 861.09375 C 250.296875 863.15625 249.238281 870.9375 249.121094 876.25 C 249.011719 881.574219 248.796875 887.371094 251.984375 891.617188 C 255.867188 896.773438 263.464844 897.796875 267.710938 902.65625 C 272.128906 907.703125 272.105469 915.96875 277.480469 919.976562 C 279.386719 921.410156 281.726562 922.082031 284.011719 922.722656 C 288.011719 923.859375 292.355469 924.984375 296.238281 923.472656 C 297.878906 925.578125 301.058594 925.628906 303.261719 924.117188 C 305.476562 922.605469 306.769531 920.117188 307.972656 917.738281 C 308.527344 922.941406 310.355469 928.746094 314.640625 931.679688 C 312.101562 936.164062 308.921875 940.132812 304.546875 942.78125 C 308.695312 943.039062 313.546875 940.429688 316.597656 937.597656 C 316.714844 937.488281 316.824219 937.378906 316.945312 937.269531 C 318.730469 941.25 328.53125 947.925781 331.324219 949.160156 C 335.160156 950.859375 339.375 951.449219 343.417969 952.578125 C 346.964844 953.5625 350.390625 954.964844 353.621094 956.742188 C 355.378906 957.710938 357.1875 958.828125 359.191406 958.898438 C 362.492188 959.003906 365.160156 956.328125 367.191406 953.730469 C 369.226562 951.136719 371.390625 948.210938 374.613281 947.492188 C 375.996094 943.402344 378.1875 941.535156 382.296875 940.183594 C 383.472656 939.789062 384.738281 939.542969 385.734375 938.800781 C 386.652344 938.121094 387.175781 937.171875 387.550781 936.105469 C 388.71875 938.425781 390.0625 940.648438 391.59375 942.730469 C 393.015625 944.65625 394.734375 946.542969 396.875 947.492188 C 396.195312 946.808594 395.582031 945.683594 395.375 944.984375 C 393.636719 939.085938 392.304688 933.074219 391.375 926.988281 C 392.472656 925.863281 393.746094 924.875 395 923.929688 C 397.578125 921.972656 400.15625 920.019531 402.746094 918.0625 C 417.867188 916.464844 433.484375 908.878906 446.15625 900.457031 C 458.832031 892.042969 470.011719 881.613281 480.996094 871.085938 C 490.125 862.335938 503.992188 864.855469 516.628906 864.488281 C 531.664062 864.046875 546.539062 867.15625 561.257812 870.246094 C 581.527344 874.503906 601.886719 878.789062 621.285156 886.039062 C 632.390625 890.195312 643.441406 895.378906 655.296875 895.933594 C 662.992188 896.289062 670.644531 894.667969 678.339844 894.738281 C 696.269531 894.90625 719.859375 905.699219 736.277344 912.917969 C 739.496094 914.328125 743.269531 912.691406 745.964844 910.4375 C 748.683594 908.199219 750.894531 905.304688 753.976562 903.617188 C 755.882812 902.570312 758.046875 902.015625 760.21875 901.523438 C 760.851562 904.917969 760.890625 908.414062 760.339844 911.832031 C 761.160156 908.167969 761.96875 904.59375 762.570312 900.980469 C 765.269531 900.316406 767.855469 899.488281 769.820312 897.582031 C 770.898438 896.535156 771.726562 895.210938 772.816406 894.203125 C 772.855469 897.671875 774.03125 901.1875 775.375 904.453125 C 777.230469 908.929688 779.441406 913.429688 779.570312 918.269531 C 781.242188 912.78125 780.984375 907.050781 779.234375 901.394531 C 778.601562 899.339844 777.8125 897.304688 777.554688 895.171875 C 777.4375 894.273438 777.449219 893.375 777.507812 892.484375 C 778.386719 892.464844 779.273438 892.515625 780.144531 892.59375 C 783.414062 892.882812 786.683594 893.15625 789.964844 893.433594 C 793.242188 897.691406 797.597656 901.105469 802.527344 903.21875 C 800.53125 900.433594 798.960938 897.324219 797.617188 894.09375 C 802.183594 894.492188 806.746094 894.886719 811.308594 895.269531 C 812.652344 895.390625 814.035156 895.507812 815.320312 895.101562 C 816.902344 894.609375 818.144531 893.414062 819.242188 892.179688 C 824.449219 886.3125 827.570312 878.945312 830.847656 871.816406 C 833.238281 866.59375 835.765625 861.4375 838.285156 856.273438 C 844.125 844.34375 849.953125 832.414062 855.789062 820.476562 C 860.816406 822.136719 865.726562 817.929688 869.371094 814.078125 C 873.402344 809.820312 877.433594 805.554688 881.464844 801.296875 C 883.84375 798.78125 886.390625 795.214844 884.734375 792.171875 C 883.519531 789.960938 880.457031 789.082031 879.636719 786.691406 C 879.023438 784.894531 879.933594 782.980469 880.386719 781.132812 C 880.710938 779.859375 880.792969 778.566406 880.742188 777.261719 C 882.519531 778.773438 884.59375 779.769531 886.875 779.542969 C 882.953125 774.675781 879.664062 769.113281 877.246094 763.230469 C 876.40625 760.484375 875.554688 757.730469 874.707031 754.984375 C 879.871094 753.828125 884.980469 751.527344 888.347656 747.457031 C 891.714844 743.390625 892.972656 737.285156 890.382812 732.675781 " fill-opacity="1" fill-rule="nonzero"/><path fill="rgb(68.629456%, 50.588989%, 40.388489%)" d="M 686.617188 1095.765625 C 680.414062 1109.613281 678.882812 1130.804688 679.46875 1138.882812 C 700.824219 1184.011719 684.160156 1184.210938 684.160156 1184.210938 C 690.246094 1190.796875 682.894531 1201.292969 682.085938 1210.222656 C 681.078125 1221.292969 681.730469 1232.507812 683.992188 1243.390625 C 687.113281 1258.3125 693.265625 1273.660156 688.988281 1288.292969 C 684.515625 1303.621094 669.976562 1313.425781 656.453125 1321.929688 C 649.902344 1326.039062 643.273438 1330.195312 635.953125 1332.671875 C 625.9375 1336.070312 615.101562 1336.160156 604.550781 1335.410156 C 581.457031 1333.769531 557.96875 1327.914062 539.496094 1313.929688 C 528.34375 1305.488281 519.464844 1294.417969 511.371094 1283 C 494.480469 1259.152344 480.285156 1232.519531 476.414062 1203.554688 C 471.859375 1169.484375 483.398438 1133.421875 480.285156 1099.175781 C 477.945312 1073.417969 467.8125 1020.042969 467.8125 1020.042969 C 467.8125 1020.042969 727.664062 937.339844 686.617188 1095.765625 " fill-opacity="1" fill-rule="nonzero"/><path fill="rgb(76.469421%, 58.428955%, 50.588989%)" d="M 734.417969 868.726562 C 730.792969 868.429688 715.71875 875.363281 705.773438 876.566406 C 695.816406 877.773438 693.097656 867.214844 693.097656 867.214844 C 697.316406 868.125 722.960938 855.167969 729.589844 856.667969 C 736.226562 858.179688 741.351562 871.945312 741.351562 871.945312 C 741.351562 871.945312 738.035156 869.03125 734.417969 868.726562 Z M 671.347656 1062.605469 C 671.347656 1062.605469 674.082031 1086.859375 654.613281 1090.613281 C 635.136719 1094.375 625.226562 1097.445312 610.539062 1087.195312 C 595.851562 1076.953125 583.898438 1058.855469 583.898438 1058.855469 C 584.914062 1059.191406 590.386719 1061.925781 608.492188 1055.773438 C 626.601562 1049.628906 640.605469 1047.242188 653.585938 1050.3125 C 653.585938 1050.3125 662.46875 1045.925781 671.347656 1048.976562 C 680.238281 1052.019531 686.726562 1053.828125 686.726562 1053.828125 C 686.726562 1053.828125 679.890625 1061.578125 671.347656 1062.605469 Z M 513.972656 866.601562 C 513.972656 866.601562 543.230469 844.007812 554.382812 844.917969 C 565.542969 845.816406 613.1875 860.589844 613.1875 860.589844 C 613.1875 860.589844 605.046875 869.328125 592.984375 868.125 C 580.925781 866.917969 567.351562 856.976562 551.972656 856.550781 C 536.589844 856.125 514.878906 867.214844 513.972656 866.601562 Z M 742.351562 829.769531 C 735.59375 823.113281 732.296875 809.542969 732.226562 800.054688 C 723.503906 798.21875 720.679688 785.8125 722.089844 777.015625 C 718.257812 774.457031 715.660156 770.011719 712.578125 766.597656 C 693.839844 745.769531 663.722656 740.171875 635.796875 737.839844 C 607.882812 735.519531 578.414062 734.867188 554.410156 720.398438 C 549.1875 724.28125 541.054688 720.519531 534.597656 721.359375 C 529.042969 722.070312 524.886719 726.613281 521.25 730.859375 C 515.246094 737.859375 509.199219 744.941406 504.875 753.085938 C 501.710938 759.03125 499.519531 765.480469 496.042969 771.246094 C 492.554688 777.015625 487.515625 784.054688 480.9375 785.507812 C 490.867188 786.082031 502.382812 783.828125 510.59375 778.210938 C 505.566406 782.859375 500.347656 787.402344 494.394531 790.78125 C 488.425781 794.160156 481.5625 797.0625 474.726562 796.578125 C 473.441406 800.035156 471.871094 803.46875 469.332031 806.136719 C 466.785156 808.804688 463.109375 812.011719 459.453125 811.488281 C 464.789062 812.171875 472.382812 811.339844 477.453125 809.554688 C 473.007812 815.015625 466.140625 818.410156 459.097656 818.402344 C 462.339844 820.335938 466.449219 819.585938 470.140625 818.765625 C 473.707031 817.976562 479.289062 817.375 482.855469 816.585938 C 477.390625 818.035156 472.433594 821.296875 468.9375 825.738281 C 463.988281 832.019531 462.011719 842.882812 455.492188 847.515625 C 461.25 844.71875 466.328125 840.550781 470.191406 835.457031 C 472.257812 832.722656 473.984375 829.730469 476.1875 827.101562 C 478.398438 824.476562 483.890625 822.3125 487.25 821.601562 C 475.359375 830.113281 472.472656 846.785156 462.300781 857.289062 C 460.175781 859.484375 457.675781 861.417969 454.742188 862.289062 C 451.816406 863.136719 447.601562 864.371094 445.308594 862.355469 C 446.761719 864.320312 446.515625 867.039062 445.949219 869.40625 C 445.398438 871.789062 444.578125 874.214844 445.082031 876.605469 C 445.4375 878.253906 446.40625 879.738281 446.652344 881.40625 C 446.820312 882.5625 446.632812 883.746094 446.355469 884.890625 C 445.941406 886.667969 445.269531 888.488281 443.847656 889.621094 C 442.277344 890.875 440.042969 891.042969 438.109375 890.492188 C 436.171875 889.9375 434.492188 888.761719 432.910156 887.507812 C 431.222656 886.164062 429.820312 884.8125 429.996094 882.660156 C 428.445312 900.523438 412.136719 906.734375 412.136719 906.734375 C 412.136719 906.734375 410.578125 946.335938 417.570312 969.632812 C 424.566406 992.9375 452.53125 979.734375 452.53125 979.734375 C 452.53125 979.734375 461.074219 1025.542969 511.5625 1085.339844 C 562.058594 1145.132812 614.09375 1145.132812 638.957031 1141.253906 C 663.8125 1137.371094 691.777344 1092.332031 722.0625 1031.757812 C 752.367188 971.191406 738.378906 932.363281 736.828125 924.589844 C 735.277344 916.828125 738.378906 893.53125 742.351562 877.230469 C 746.320312 860.914062 742.351562 829.769531 742.351562 829.769531 " fill-opacity="1" fill-rule="nonzero"/><g clip-path="url(#id1)"><path fill="rgb(19.999695%, 19.219971%, 19.60907%)" d="M 455.917969 1087.738281 C 440.015625 1093.714844 420.722656 1081.398438 421.464844 1027.699219 C 422.214844 973.996094 440.210938 972.503906 440.210938 972.503906 C 440.675781 966.914062 435.539062 965.78125 435.539062 965.78125 C 435.539062 965.78125 416.1875 976.988281 416.1875 1027.914062 C 416.1875 1078.839844 432.585938 1100.84375 455.917969 1094.15625 C 459.710938 1093.070312 455.917969 1087.738281 455.917969 1087.738281 Z M 467.8125 1146.546875 C 465.546875 1148.679688 432.851562 1192.257812 417.964844 1205.007812 C 403.078125 1217.765625 272.304688 1288.984375 194.683594 1340.011719 C 117.070312 1391.027344 76.660156 1490.945312 62.839844 1511.140625 C 49.023438 1531.332031 51.144531 1552.59375 51.144531 1552.59375 C 14.992188 1589.792969 1.171875 1785.382812 1.171875 1791.761719 C 1.171875 1798.140625 1047.414062 1791.761719 1047.414062 1791.761719 C 1047.414062 1791.761719 1027.214844 1647.199219 1018.707031 1613.179688 C 1010.203125 1579.167969 977.242188 1387.835938 964.476562 1358.074219 C 951.726562 1328.320312 921.945312 1314.335938 921.945312 1314.335938 C 914.503906 1302.484375 878.363281 1261.34375 832.636719 1237.960938 C 786.921875 1214.574219 679.46875 1138.882812 679.46875 1138.882812 C 679.46875 1138.882812 679.871094 1145.488281 681.066406 1151.691406 C 682.273438 1157.890625 684.160156 1162.75 684.160156 1162.75 C 684.585938 1187.8125 635.3125 1268.949219 635.3125 1268.949219 C 623.960938 1252.921875 476.335938 1144.539062 476.335938 1144.539062 C 476.335938 1144.539062 470.0625 1144.421875 467.8125 1146.546875 Z M 747.734375 1020.042969 C 747.703125 1048.890625 740.078125 1088.234375 717.222656 1090.859375 C 717.222656 1090.859375 713.546875 1085.132812 718.773438 1083.265625 C 723.996094 1081.398438 737.074219 1069.65625 741.351562 1037.207031 C 743.832031 1018.445312 741.5 1000.382812 738.015625 987.671875 C 738.875 983.742188 739.546875 979.96875 740.050781 976.367188 C 743.863281 987.375 747.753906 1002.664062 747.734375 1020.042969 " fill-opacity="1" fill-rule="nonzero"/></g><g clip-path="url(#id2)"><path fill="rgb(76.078796%, 58.81958%, 61.569214%)" d="M 249.507812 1525.890625 C 249.507812 1557.789062 268.402344 1652.34375 268.402344 1652.34375 C 221.207031 1629.5625 184.546875 1523.609375 184.546875 1523.609375 C 175.429688 1595.382812 234.6875 1651.199219 256.34375 1671.710938 C 277.996094 1692.21875 308.753906 1794.597656 308.753906 1794.597656 L 353.195312 1794.597656 C 353.195312 1794.597656 345.222656 1744.617188 345.222656 1693.355469 C 345.222656 1642.09375 288.246094 1466.652344 287.101562 1466.738281 C 287.101562 1466.738281 249.507812 1493.996094 249.507812 1525.890625 Z M 930.953125 1391.460938 C 930.953125 1391.460938 943.488281 1442.734375 930.953125 1460.953125 C 918.417969 1479.183594 935.257812 1527.027344 936.523438 1558.925781 C 937.789062 1590.832031 962.859375 1792.238281 962.859375 1792.238281 L 1023.261719 1792.238281 C 1023.261719 1792.238281 1019.835938 1652.34375 1008.4375 1636.394531 C 997.035156 1620.449219 1000.464844 1632.980469 990.199219 1607.914062 C 979.949219 1582.851562 963.996094 1413.109375 930.953125 1391.460938 Z M 728.886719 1417.355469 C 721.941406 1411.410156 690.453125 1393.554688 690.453125 1393.554688 C 690.453125 1393.554688 696.152344 1373.726562 686.726562 1366.78125 C 677.304688 1359.839844 667.375 1353.886719 656.472656 1346.945312 C 645.554688 1340 627.707031 1324.132812 627.707031 1324.132812 L 621.433594 1338.699219 C 626.253906 1347.695312 637.40625 1373.726562 678.292969 1373.726562 C 678.292969 1373.726562 668.375 1383.640625 673.332031 1390.582031 C 678.292969 1397.523438 686.222656 1418.351562 686.726562 1430.25 C 687.222656 1442.152344 672.335938 1478.847656 686.726562 1529.425781 C 701.109375 1580 715.996094 1678.1875 720.957031 1693.058594 C 725.914062 1707.941406 730.871094 1738.683594 732.859375 1752.566406 C 732.859375 1752.566406 709.050781 1675.1875 698.136719 1628.585938 C 687.222656 1581.992188 668.375 1504.632812 666.390625 1483.804688 C 664.542969 1464.4375 628.398438 1391.09375 607.386719 1371.316406 L 593.972656 1402.480469 L 440.210938 1197.195312 C 440.210938 1197.195312 554.292969 1308.261719 588.015625 1377.695312 L 628.695312 1306.289062 C 628.695312 1306.289062 642.582031 1293.390625 647.542969 1298.347656 C 652.304688 1303.117188 705.296875 1391.136719 739.941406 1405.117188 C 741.363281 1405.679688 742.757812 1406.136719 744.121094 1406.453125 C 778.496094 1414.382812 735.832031 1423.308594 728.886719 1417.355469 " fill-opacity="1" fill-rule="nonzero"/></g></svg>