<svg xmlns="http://www.w3.org/2000/svg" xmlns:xlink="http://www.w3.org/1999/xlink" width="1728" zoomAndPan="magnify" viewBox="0 0 1296 1727.999927" height="2304" preserveAspectRatio="xMidYMid meet" version="1.0"><defs><clipPath id="id1"><path d="M 222.015625 548.351562 L 904 548.351562 L 904 1727.007812 L 222.015625 1727.007812 Z M 222.015625 548.351562 " clip-rule="nonzero"/></clipPath><clipPath id="id2"><path d="M 96.625 1060 L 1060.277344 1060 L 1060.277344 1727.007812 L 96.625 1727.007812 Z M 96.625 1060 " clip-rule="nonzero"/></clipPath></defs><g clip-path="url(#id1)"><path fill="rgb(19.999695%, 19.219971%, 19.60907%)" d="M 271.972656 1029.726562 C 255.839844 1055.9375 232.613281 1101.839844 225.980469 1143.816406 C 228.675781 1112.8125 235.25 1066.085938 251.078125 1037.902344 C 264.3125 1014.324219 275.253906 996.007812 282.9375 979.582031 C 282.242188 999.535156 279.339844 1017.746094 271.972656 1029.726562 Z M 829.304688 1727.007812 C 841.175781 1711.492188 853.609375 1695.90625 859.847656 1690.148438 C 873.828125 1677.238281 879.207031 1641.738281 879.207031 1641.738281 C 896.425781 1681.546875 851.238281 1709.515625 851.238281 1709.515625 C 851.238281 1709.515625 896.425781 1685.847656 896.425781 1656.800781 C 896.425781 1627.75 842.628906 1547.058594 842.628906 1547.058594 C 842.628906 1547.058594 827.570312 1471.75 827.570312 1454.527344 C 827.570312 1437.316406 835.09375 1414.730469 851.238281 1380.472656 C 867.382812 1346.21875 827.570312 1277.011719 827.570312 1277.011719 C 818.960938 1260.875 835.09375 1196.320312 827.570312 1139.300781 C 820.773438 1087.851562 795.585938 1042.527344 790.726562 993.070312 C 814.5625 1048.828125 860.503906 1077.421875 887.5625 1119.257812 C 921.25 1171.382812 870.164062 1223.660156 870.164062 1223.660156 C 936.472656 1160.617188 889.738281 1094.316406 852.777344 1050.835938 C 815.816406 1007.351562 817.988281 946.480469 807.117188 884.523438 C 799.0625 838.597656 743.941406 726.308594 715.953125 671.285156 C 710.8125 660.199219 705.394531 649.65625 699.722656 639.832031 C 694.167969 630.214844 688.378906 621.257812 682.324219 613.199219 C 611.3125 518.519531 513.398438 555.097656 509.097656 556.175781 C 504.789062 557.253906 412.863281 529.984375 357.035156 615.050781 C 301.214844 700.105469 279.949219 847.640625 278.617188 878.203125 C 278.371094 883.925781 280.613281 908.726562 280.613281 908.726562 C 281.574219 923.734375 268.261719 952.398438 252.070312 984.78125 C 235.875 1017.175781 217.734375 1136.34375 224.140625 1175.269531 C 224.140625 1175.269531 224.167969 1173.613281 224.277344 1170.648438 C 224.453125 1174.507812 224.824219 1178.296875 225.453125 1181.960938 C 227.167969 1191.953125 230.4375 1222.164062 233.582031 1221.683594 C 236.375 1221.261719 479.808594 1635.183594 533.765625 1727.007812 L 829.304688 1727.007812 " fill-opacity="1" fill-rule="nonzero"/></g><path fill="rgb(94.119263%, 73.329163%, 69.018555%)" d="M 340.457031 878.390625 C 340.949219 884.160156 341.320312 889.417969 341.476562 894.023438 C 343.535156 955.738281 361.019531 1000.984375 387.753906 1039.039062 C 414.496094 1077.097656 455.640625 1119.257812 498.832031 1119.257812 C 542.035156 1119.257812 570.835938 1085.324219 596.539062 1063.726562 C 614.445312 1048.679688 635.910156 1023.679688 648.292969 1008.832031 C 627.59375 983.683594 629.269531 882.484375 629.269531 882.484375 C 616.867188 876.617188 601.125 843.75 589.378906 811.757812 C 577.035156 811.386719 560.195312 811.179688 550.820312 812.375 C 550.820312 812.375 540.339844 805.429688 538.769531 795.742188 C 540.554688 795.800781 567.011719 794.898438 583.746094 795.605469 C 576.839844 774.652344 572.351562 756.273438 572.566406 749.191406 C 573.175781 729.894531 559.304688 700.949219 559.304688 700.949219 C 561.714844 716.621094 541.210938 778.148438 536.382812 799.25 C 531.5625 820.359375 539.398438 842.078125 539.398438 842.078125 C 532.160156 837.246094 527.339844 820.964844 527.339844 820.964844 C 526.132812 857.152344 562.3125 852.929688 562.3125 852.929688 C 530.347656 861.375 518.894531 839.058594 518.894531 839.058594 L 521.914062 852.929688 C 496.578125 828.804688 486.746094 701.546875 486.746094 701.546875 C 486.746094 701.546875 474.863281 748.59375 474.863281 779.765625 C 474.863281 810.9375 491.152344 829.410156 491.152344 829.410156 C 482.699219 838.453125 470.640625 837.246094 470.640625 837.246094 C 460.734375 830.644531 459.636719 811.875 459.628906 804.011719 C 458.746094 804.871094 457.824219 805.558594 456.875 805.910156 C 451.242188 815.492188 444.328125 821.003906 444.328125 821.003906 C 447.324219 817.292969 449.792969 811.925781 451.851562 805.429688 C 448.902344 805.15625 444.925781 804.792969 440.554688 804.410156 C 428.191406 837.453125 402.15625 843.625 402.15625 843.625 C 415.390625 837.824219 421.816406 821.632812 424.605469 803.148438 C 417.386719 802.648438 411.390625 802.394531 409.835938 802.738281 C 407.269531 803.304688 399.089844 804.234375 392.417969 804.949219 C 377.339844 842.214844 359.050781 878.496094 340.457031 878.390625 Z M 455.835938 788.816406 C 463.714844 745.707031 460.785156 681.132812 460.785156 681.132812 C 447.414062 688.332031 451.527344 721.246094 446.382812 777.804688 C 446.050781 781.507812 445.5625 784.996094 444.953125 788.308594 C 448.824219 788.453125 452.554688 788.628906 455.835938 788.816406 Z M 412.371094 789.550781 C 408.765625 791.355469 401.234375 795.546875 394.699219 799.238281 C 406.925781 768.3125 416.828125 737.96875 422.726562 728.445312 C 422.726562 728.445312 427.78125 758.363281 426.125 788.003906 C 419.613281 788.121094 414.359375 788.550781 412.371094 789.550781 " fill-opacity="1" fill-rule="nonzero"/><g clip-path="url(#id2)"><path fill="rgb(100%, 87.059021%, 87.059021%)" d="M 96.644531 1447.367188 C 97.632812 1482.132812 96.644531 1727.007812 96.644531 1727.007812 L 720 1727.007812 C 722.546875 1722.847656 724.730469 1718.132812 726.4375 1712.746094 C 735.144531 1685.152344 724.691406 1655.609375 710.566406 1631.449219 C 710.566406 1631.449219 682.324219 1743.945312 572.578125 1718.125 C 572.578125 1718.125 631.746094 1722.425781 656.5 1689.078125 C 656.5 1689.078125 573.65625 1723.503906 529.542969 1665.402344 C 529.542969 1665.402344 597.324219 1685.847656 633.902344 1639.582031 C 670.480469 1593.316406 605.933594 1483.582031 588.710938 1458.839844 C 571.5 1434.09375 543.523438 1329.730469 603.777344 1232.898438 C 603.777344 1232.898438 589.789062 1183.410156 601.625 1143.601562 C 608.988281 1118.835938 604.6875 1083.671875 600.398438 1060.628906 C 599.066406 1061.816406 597.734375 1062.972656 596.441406 1064.058594 C 570.726562 1085.660156 541.933594 1119.601562 498.734375 1119.601562 C 469.738281 1119.601562 441.683594 1100.597656 418.269531 1076.585938 C 417.78125 1097.03125 416.984375 1134.617188 415.273438 1162.253906 L 301.167969 1200.945312 L 292.164062 1214.230469 C 256.554688 1218.46875 227.136719 1222.027344 215.851562 1224.847656 C 188.039062 1231.800781 154.265625 1274.511719 144.332031 1291.410156 C 134.398438 1308.289062 95.644531 1412.601562 96.644531 1447.367188 Z M 859.847656 1690.148438 C 873.828125 1677.238281 879.207031 1641.738281 879.207031 1641.738281 C 896.425781 1681.546875 851.238281 1709.515625 851.238281 1709.515625 C 851.238281 1709.515625 896.425781 1685.847656 896.425781 1656.800781 C 896.425781 1627.75 842.628906 1547.058594 842.628906 1547.058594 C 842.628906 1547.058594 827.570312 1471.75 827.570312 1454.527344 C 827.570312 1437.316406 835.09375 1414.730469 851.238281 1380.472656 C 867.382812 1346.21875 827.570312 1277.011719 827.570312 1277.011719 C 824.160156 1270.621094 824.632812 1256.625 825.984375 1238.542969 C 861.925781 1247.101562 891.609375 1253.550781 896.425781 1254.644531 C 909.417969 1257.632812 944.035156 1297.367188 949.003906 1317.230469 C 953.96875 1337.097656 999.667969 1415.582031 1016.558594 1440.414062 C 1033.445312 1465.253906 1042.390625 1542.730469 1051.324219 1573.527344 C 1060.269531 1604.328125 1060.269531 1727.007812 1060.269531 1727.007812 L 829.304688 1727.007812 C 841.175781 1711.492188 853.609375 1695.90625 859.847656 1690.148438 " fill-opacity="1" fill-rule="nonzero"/></g><path fill="rgb(90.19928%, 67.449951%, 64.709473%)" d="M 479.074219 956.238281 C 474.488281 953.152344 467.652344 961.183594 467.652344 961.183594 C 476.390625 962.859375 483.980469 959.546875 479.074219 956.238281 Z M 524.734375 962.683594 C 524.734375 962.683594 517.992188 954.179688 514.535156 956.570312 C 510.214844 959.546875 514.125 963.90625 524.734375 962.683594 Z M 600.398438 1060.621094 C 600.300781 1060.707031 600.191406 1060.707031 600.085938 1060.660156 C 598.890625 1061.71875 597.703125 1062.746094 596.539062 1063.726562 C 570.835938 1085.324219 542.035156 1119.257812 498.832031 1119.257812 C 469.816406 1119.257812 441.742188 1100.226562 418.328125 1076.207031 C 418.308594 1076.332031 418.277344 1076.460938 418.269531 1076.585938 C 417.464844 1110.304688 415.839844 1190.769531 410.570312 1196.039062 C 410.570312 1196.039062 374.234375 1245.332031 368.917969 1269.242188 C 363.605469 1293.164062 494.375 1681.214844 494.375 1681.214844 L 592.550781 1464.578125 C 591.113281 1462.347656 589.808594 1460.417969 588.710938 1458.839844 C 571.5 1434.09375 543.523438 1329.730469 603.777344 1232.898438 C 603.777344 1232.898438 589.789062 1183.410156 601.625 1143.601562 C 608.988281 1118.835938 604.6875 1083.671875 600.398438 1060.621094 Z M 340.457031 878.390625 C 340.949219 884.160156 341.320312 889.429688 341.476562 894.023438 C 341.976562 909.011719 343.398438 923 345.632812 936.175781 C 345.621094 936.183594 345.621094 936.183594 345.621094 936.183594 C 345.621094 936.183594 336.335938 941.335938 331.191406 925.910156 C 328.183594 916.878906 316.722656 889.183594 309.179688 864.058594 C 317.152344 871.992188 327.539062 878.3125 340.457031 878.390625 " fill-opacity="1" fill-rule="nonzero"/><path fill="rgb(100%, 87.059021%, 87.059021%)" d="M 494.277344 1052.695312 C 454.320312 1052.695312 444.464844 1021.496094 444.464844 1021.496094 C 449.941406 1020.398438 475.117188 1000.152344 480.59375 1000.699219 C 486.066406 1001.25 492.082031 1006.722656 492.082031 1006.722656 C 492.082031 1006.722656 499.203125 1000.699219 507.414062 1000.699219 C 515.625 1000.699219 544.082031 1024.230469 544.082031 1024.230469 C 544.082031 1024.230469 534.226562 1052.695312 494.277344 1052.695312 " fill-opacity="1" fill-rule="nonzero"/></svg>